<?xml version="1.0" encoding="utf-8"?>
<!-- Generator: Adobe Illustrator 15.0.0, SVG Export Plug-In . SVG Version: 6.00 Build 0)  -->
<!DOCTYPE svg PUBLIC "-//W3C//DTD SVG 1.1//EN" "http://www.w3.org/Graphics/SVG/1.1/DTD/svg11.dtd">
<svg version="1.1"
	 id="svg2" xmlns:svg="http://www.w3.org/2000/svg" xmlns:rdf="http://www.w3.org/1999/02/22-rdf-syntax-ns#" xmlns:cc="http://creativecommons.org/ns#" xmlns:dc="http://purl.org/dc/elements/1.1/"
	 xmlns="http://www.w3.org/2000/svg" xmlns:xlink="http://www.w3.org/1999/xlink" x="0px" y="0px" width="1898.667px"
	 height="640px" viewBox="0 0 1898.667 640" enable-background="new 0 0 1898.667 640" xml:space="preserve">
<path id="path16" fill="#353638" d="M1699.494,168.255c-2-0.215-3.4-0.366-5.213-0.558c0.92,2.363,1.666,4.268,2.613,6.709
	C1697.853,172.123,1698.56,170.456,1699.494,168.255L1699.494,168.255z M1710.027,169.921c-0.027-0.438-0.027-0.875-0.041-1.315
	c-3.025-0.344-6.053-0.684-9.693-1.094c0.641,1.912,0.92,2.74,1.121,3.362C1704.494,170.536,1707.253,170.23,1710.027,169.921z
	 M1696.533,186.24c3.066-2.934,3.748-5.836,0-9.779C1696.533,180.453,1696.533,183.348,1696.533,186.24z M1702.613,174.689
	c-0.467-0.038-0.92-0.075-1.373-0.113c0,4.214,0,8.425,0,12.64c0.453,0.003,0.906,0.007,1.373,0.011
	C1702.613,183.047,1702.613,178.871,1702.613,174.689z M1706.693,184.328c0.586,0.088,1.188,0.173,1.787,0.26
	c4.266-3.674-0.641-8.466,1.92-12.348c-0.6-0.083-1.213-0.169-1.826-0.252C1707.933,176.099,1707.32,180.216,1706.693,184.328
	L1706.693,184.328z M1663.4,384.314c-0.32,3.256-0.6,6.01-0.893,8.911c6.453,1.772,3.533-4.524,5.865-6.138
	C1666.853,386.244,1665.48,385.475,1663.4,384.314L1663.4,384.314z M1048.294,393.416c6.275,1.127,3.703-4.586,5.889-6.409
	c-1.613-0.854-2.994-1.593-4.916-2.609C1048.935,387.488,1048.625,390.324,1048.294,393.416L1048.294,393.416z M744.41,384.285
	c-0.3,3.293-0.562,6.143-0.837,9.135c6.598,1.095,3.387-4.809,5.76-6.354C747.716,386.153,746.452,385.438,744.41,384.285
	L744.41,384.285z M787.341,185.874c2.462-6.012,1.591-11.187-3.946-15.232c-5.244,3.709,1.357,10.344-3.441,14.811
	c1.537,0.636,3.726,1.9,3.981,1.586c1.277-1.56,2.044-3.536,2.857-5.1C786.927,182.921,787.133,184.396,787.341,185.874z
	 M1481.093,185.792c3.107-6.243,0.826-11.035-3.787-15.344c-5.039,4.148,1.439,10.637-4.174,15.613
	c2.682,0.23,4.881,1.045,5.627,0.333c1.107-1.048,1.174-3.183,1.801-5.277C1480.787,183.008,1480.947,184.4,1481.093,185.792z
	 M755.322,364.99c-9.256-0.888-14.427,4.171-16.876,9.094c-1.009,2.021-0.58,6.039,0.863,7.703c2.104,2.446,4.708,0.19,6.517-1.852
	c1.93-2.18,4.051-4.245,5.614-6.673C752.941,370.939,753.843,368.227,755.322,364.99L755.322,364.99z M1680.386,395.803
	c0.055-0.212,0.121-0.422,0.188-0.631c1.227,0,2.467-0.092,3.68,0.023c4.066,0.367,5.76-1.344,5.027-5.414
	c-0.174-0.904-0.215-1.842-0.215-2.762c0.014-4.031-2.293-5.027-5.773-4.378c-5.119,0.957-9.893,2.584-13.799,6.353
	c-1.906,1.84-2.24,3.002,0.492,3.86C1673.427,393.935,1676.919,394.832,1680.386,395.803L1680.386,395.803z M1066.425,395.818
	c0.068-0.217,0.129-0.43,0.189-0.646c0.92,0,1.846,0,2.766,0c5.648,0,6.025-0.416,5.619-6.088c-0.092-1.225,0.15-2.645-0.395-3.623
	c-0.641-1.169-1.943-2.768-2.982-2.79c-6.684-0.159-12.396,2.503-17.152,7.079c-0.324,0.309,0.451,2.736,1.137,2.979
	C1059.134,393.971,1062.806,394.822,1066.425,395.818L1066.425,395.818z M761.654,395.818c0.063-0.217,0.126-0.43,0.188-0.646
	c0.922,0,1.846,0,2.769,0c5.638,0,6.017-0.416,5.606-6.092c-0.09-1.229,0.147-2.648-0.393-3.633
	c-0.645-1.162-1.948-2.76-2.996-2.785c-6.678-0.135-12.398,2.496-17.156,7.088c-0.32,0.309,0.468,2.729,1.161,2.979
	C754.365,393.971,758.033,394.822,761.654,395.818L761.654,395.818z M827.08,363.599c-2.24,0.286-5.432-0.259-6.539,1.009
	c-3.18,3.655-5.825,7.887-8.062,12.213c-1.179,2.285-0.179,4.223,3.175,4.539c3.848,0.361,5.409-2.109,7.321-4.487
	c2.051-2.556,4.222-4.884,7.438-1.409c0.938,1.01,1.916,2.012,2.709,3.137c2.537,3.596,6.084,3.226,9.525,2.172
	c0.999-0.309,2.338-2.366,2.125-3.311C843.271,370.811,834.475,364.25,827.08,363.599L827.08,363.599z M711.452,151.481
	c-8.675-0.449-15.196,2.502-20.344,8.304c-2.637,2.965-5.431,5.94-7.353,9.359c-3.123,5.564,0.255,13.804,5.477,13.568
	c2.537-0.115,5.475-1.836,7.365-3.703c4.03-3.98,7.075-9.009,11.303-12.725C713.029,161.776,711.908,156.668,711.452,151.481z
	 M798.438,135.792c-2.167,0.468-3.762,0.978-5.389,1.139c-8.437,0.831-20.812,10.992-23.002,18.976
	c-1.512,5.507,1.824,12.133,6.409,11.801c2.444-0.177,5.219-1.779,7.025-3.568c3.818-3.775,6.675-8.576,10.698-12.068
	C799.43,147.516,799.441,142.208,798.438,135.792z M1500.56,171.689c0.16,0.532,0.32,1.062,0.467,1.595
	c-1.494,0.309-2.973,0.693-4.467,0.901c-1.439,0.2-3.188-0.253-4.279,0.413c-2.135,1.301-4.334,2.903-5.693,4.924
	c-1,1.478-1.588,5.014-0.84,5.56c2.479,1.816,5.572,3.512,8.559,3.78c7.613,0.687,15.307,0.667,22.961,0.732
	c2.934,0.021,4.533-1.655,4.227-4.777c-0.307-3.207-0.533-6.425-0.854-9.633c-0.746-7.468-3.146-8.972-10.586-7.14
	c-3.988,0.98-8.08,1.483-12.107,2.285c-0.893,0.171-1.693,0.703-2.533,1.074c0.146,0.38,0.293,0.761,0.426,1.139
	C1497.414,172.257,1498.986,171.975,1500.56,171.689L1500.56,171.689z M806.627,171.611c0.153,0.526,0.309,1.052,0.465,1.579
	c-1.42,0.357-2.822,0.84-4.261,1.036c-1.456,0.192-3.266-0.421-4.359,0.241c-2.254,1.369-4.52,3.077-6.03,5.184
	c-0.974,1.352-1.411,4.858-0.694,5.341c2.688,1.816,5.863,3.588,9.006,3.913c7.147,0.733,14.385,0.651,21.583,0.81
	c3.771,0.079,5.776-1.643,5.309-5.669c-0.355-3.053-1.087-6.163-0.788-9.164c0.731-7.351-4.09-8.036-10.08-6.976
	c-4.342,0.768-8.688,1.538-13.009,2.427c-0.783,0.163-1.446,0.909-2.164,1.388c0.178,0.294,0.36,0.59,0.539,0.889
	C803.636,172.274,805.128,171.941,806.627,171.611z M641.274,452.098c0.435,5.662,0.791,12.746,1.587,19.782
	c0.528,4.697,2.167,5.284,8.955,4.847c3.748-0.233,4.735-2.511,4.653-5.577c-0.379-13.672-0.509-27.358-1.523-40.984
	c-0.279-3.713-0.289-3.746,3.168-3.429c1.543,0.135,4.367-2.397,4.823-4.177c0.828-3.227-2.21-3.148-4.3-2.752
	c-3.104,0.604-3.915-0.918-3.887-3.49c0.026-2.464,0.13-4.93,0.263-7.39c0.38-7.069,0.92-14.135,1.096-21.207
	c0.043-1.648-0.603-4.13-1.777-4.855c-6.026-3.705-12.516-0.124-12.354,7.112c0.249,10.712,0.197,21.537,4.004,31.849
	c0.448,1.217,0.935,3.123,0.343,3.899C640.551,433.28,642.095,442.183,641.274,452.098L641.274,452.098z M667.676,420.796
	c2.68,1.938,4.044,3.664,5.668,3.956c4.124,0.763,4.646,3.069,3.912,6.544c-0.525,2.511-1.062,5.075-1.106,7.632
	c-0.138,7.364-0.08,14.747,0.004,22.109c0.044,3.846,0.179,7.691,0.512,11.521c0.32,3.709,3.044,4.372,6.058,3.92
	c2.767-0.406,6.932,1.507,6.92-4.103c-0.015-5.351,0.701-10.713,0.671-16.07c-0.131-23.057-0.387-46.109-0.693-69.164
	c-0.032-2.707-0.689-5.292-4.426-5.149c-8.171,0.324-9.256,0.936-9.26,5.625c-0.012,10.598-0.006,21.199-0.006,31.543
	C673.683,419.604,671.209,420.095,667.676,420.796L667.676,420.796z M1747.814,411.146c-0.16-0.008-0.334-0.016-0.508-0.022
	c0-4.313,0.014-8.634,0-12.946c-0.027-3.994,1.801-6.113,5.947-5.789c2.266,0.174,4.572,0.769,6.812,0.564
	c1.801-0.156,4.773-0.904,5.041-1.943c0.613-2.458,0.24-5.33-0.441-7.84c-0.172-0.604-3.066-0.65-4.719-0.643
	c-4.213,0.009-8.441,0.205-12.668,0.303c-2.906,0.059-5.812,0.119-8.719,0.098c-1.654-0.015-3.547,0.295-4.906-0.384
	c-4.521-2.255-8.48-0.394-12.348,1.408c-1.053,0.491-1.986,2.42-1.959,3.68c0.012,0.971,1.453,2.452,2.533,2.766
	c2.785,0.814,5.959,2.046,8.572,1.419c5.934-1.428,6.201,2.102,6.24,6.022c0.107,10.146,0.268,20.303,0.027,30.443
	c-0.307,13.254-0.773,26.509-1.602,39.731c-0.238,3.834,0.215,6.362,4.307,7.117c3.693,0.684,6.975,0.193,7.787-4.203
	c0.533-2.801,0.748-5.728,0.654-8.592c-0.32-9.673-1.146-19.347-1.213-29.026C1746.613,425.932,1747.4,418.534,1747.814,411.146
	L1747.814,411.146z M906.658,411.033c-0.155-0.009-0.314-0.014-0.473-0.023c0-4.471-0.031-8.94,0.008-13.412
	c0.032-3.627,1.952-5.389,5.552-5.226c2.284,0.106,4.591,0.688,6.829,0.468c1.939-0.187,4.995-0.775,5.423-1.96
	c0.791-2.193,0.456-5.096-0.318-7.402c-0.26-0.784-3.245-0.883-4.991-0.896c-4.225-0.046-8.455,0.15-12.683,0.217
	c-2.756,0.047-5.516,0.076-8.271,0.037c-1.799-0.022-3.837,0.363-5.337-0.346c-4.552-2.148-8.491-0.332-12.346,1.521
	c-1.037,0.499-1.92,2.474-1.851,3.725c0.05,0.972,1.525,2.375,2.627,2.691c2.796,0.793,5.955,2.006,8.576,1.389
	c5.574-1.32,6.069,1.824,6.105,5.674c0.103,10.309,0.282,20.615,0.049,30.907c-0.303,13.251-0.799,26.497-1.606,39.729
	c-0.22,3.617,0.129,6.089,3.971,6.927c3.857,0.836,7.289,0.393,8.177-4.229c0.538-2.804,0.681-5.737,0.582-8.603
	c-0.321-9.678-1.113-19.345-1.175-29.027C905.457,425.808,906.247,418.42,906.658,411.033L906.658,411.033z M598.173,411.024
	c-0.191-0.005-0.384-0.015-0.575-0.021c0-4.012-0.054-8.016,0.009-12.026c0.088-5.307,1.371-6.61,6.583-6.521
	c2.278,0.039,4.574,0.791,6.804,0.579c1.645-0.149,4.358-1.116,4.55-2.11c0.489-2.52,0.086-5.33-0.579-7.863
	c-0.152-0.572-2.828-0.669-4.337-0.656c-4.374,0.039-8.746,0.281-13.117,0.386c-2.757,0.067-5.514,0.083-8.27,0.054
	c-1.795-0.024-3.835,0.344-5.338-0.363c-4.551-2.141-8.489-0.316-12.345,1.529c-1.033,0.499-1.911,2.481-1.845,3.733
	c0.054,0.974,1.534,2.366,2.637,2.683c2.796,0.793,5.957,2.006,8.574,1.389c5.594-1.328,6.062,1.84,6.099,5.684
	c0.098,10.146,0.29,20.303,0.031,30.442c-0.351,13.863-0.962,27.719-1.748,41.569c-0.196,3.448,1.337,4.94,4.149,5.498
	c2.837,0.562,6.299,1.264,7.392-2.511c0.948-3.288,1.387-6.855,1.311-10.286c-0.206-9.68-1.077-19.345-1.136-29.021
	C596.972,425.802,597.759,418.412,598.173,411.024L598.173,411.024z M1574.306,420.592c0.121,0,0.254,0,0.361,0
	c0-11.406,0.025-22.812-0.014-34.22c-0.014-2.7-0.121-5.374-4.107-5.186c-5.986,0.286-8.08,1.56-8,5.843
	c0.08,4.297,0.84,8.587,0.895,12.884c0.158,11.973-0.107,23.951,0.199,35.922c0.279,11.227,1.039,22.452,1.652,33.672
	c0.174,3.164,0.693,6.812,4.627,6.934c11.533,0.333,23.107,0.597,34.641,0.03c4.934-0.241,2.973-5.132,3.066-8.247
	c0.094-3.22-1.893-4.29-4.799-4.161c-6.455,0.277-12.881,0.701-19.334,0.828c-7.508,0.149-9.373-2.178-9.24-9.671
	C1574.466,443.676,1574.306,432.134,1574.306,420.592L1574.306,420.592z M1658.466,472.234c-1.359-2.315-3.199-4.107-3.439-6.1
	c-0.867-7.291-1.627-14.646-1.627-21.977c0-5.916,1.066-9.325,7.92-8.949c7.906,0.431,15.881-0.089,23.826-0.193
	c5.254-0.078,5.828-0.719,5.707-6.449c-0.105-5.492-0.92-6.586-6.105-6.113c-7.201,0.646-14.4,1.584-21.508,2.828
	c-5.467,0.957-8.52-0.921-8.334-6.387c0.375-9.979,1.148-19.948,1.547-29.922c0.066-1.439-0.865-4.16-1.439-4.199
	c-3.627-0.195-7.4-0.209-10.867,0.725c-0.732,0.205-0.359,4.561-0.467,7.002c-0.039,0.764,0.068,1.532,0.08,2.293
	c0.215,11.612,0.494,23.221,0.613,34.83c0.135,11.764-0.012,23.529,0.268,35.292c0.08,3.436,0.4,7.258,1.959,10.169
	c1.734,3.203,5.334,2.011,8.295,0.844c0.133-0.053,0.307,0.031,0.453,0.031c10.732,0.249,21.467,0.383,32.199,0.782
	c5.24,0.196,4.561-3.406,4.654-6.549c0.092-3.507-1.627-5.099-5.215-4.623c-7.373,0.972-14.76,1.877-20.453,2.594
	c-1.199,2.389-1.785,3.552-2.6,5.194c-0.613-1.456-0.947-2.262-1.293-3.069C1661.281,470.921,1660.054,471.493,1658.466,472.234
	L1658.466,472.234z M1044.195,472.158c-1.342-2.389-3.121-4.206-3.365-6.21c-0.857-7.143-1.174-14.342-1.725-21.51
	c-0.477-6.16,1.814-8.921,7.742-9.047c8.098-0.168,16.193-0.454,24.291-0.304c4.713,0.091,5.812-2.072,5.586-6.246
	c-0.309-5.688-0.918-6.841-5.902-6.411c-7.209,0.627-14.416,1.474-21.523,2.76c-5.762,1.048-8.791-0.715-8.58-6.483
	c0.361-9.98,1.139-19.94,1.582-29.922c0.061-1.342-0.752-3.896-1.227-3.913c-3.785-0.142-7.645-0.099-11.303,0.702
	c-0.58,0.129-0.285,4.334-0.348,6.655c-0.021,0.763,0.174,1.53,0.182,2.294c0.197,11.61,0.43,23.218,0.543,34.83
	c0.119,11.909-0.023,23.829,0.264,35.74c0.082,3.432,0.498,7.254,2.125,10.126c1.797,3.188,5.414,1.637,8.348,0.716
	c0.129-0.046,0.295,0.083,0.445,0.091c10.734,0.225,21.475,0.376,32.213,0.7c5.33,0.157,4.326-3.693,4.439-6.726
	c0.131-3.263-1.559-4.885-4.912-4.456c-7.496,0.951-14.988,1.925-21.76,2.792c0.092,1.454,0.414,2.33,0.113,2.812
	c-0.412,0.661-1.297,1.033-2.021,1.56c-0.316-0.845-0.58-1.545-0.879-2.336C1047.14,470.945,1045.806,471.493,1044.195,472.158
	L1044.195,472.158z M739.394,472.183c-1.251-2.292-3.076-4.23-3.34-6.366c-0.882-7.13-1.215-14.328-1.737-21.507
	c-0.448-6.143,1.828-8.781,7.873-8.918c8.099-0.188,16.197-0.422,24.293-0.311c4.374,0.061,5.651-1.832,5.463-5.91
	c-0.267-5.927-0.829-7.146-5.57-6.74c-7.354,0.627-14.708,1.532-21.975,2.806c-5.568,0.972-8.655-0.776-8.464-6.2
	c0.358-9.97,1.095-19.938,1.545-29.917c0.065-1.411-0.504-4.064-0.909-4.09c-3.766-0.232-7.624-0.338-11.292,0.379
	c-0.64,0.119-0.562,4.23-0.714,6.498c-0.071,1.055,0.142,2.135,0.167,3.197c0.248,11.608,0.565,23.218,0.712,34.828
	c0.145,11.609,0.354,23.229,0.084,34.832c-0.234,10.139,0.821,11.595,10.237,11.157c0.299-0.016,0.599,0.145,0.897,0.151
	c10.588,0.21,21.172,0.482,31.763,0.595c4.351,0.045,5.153-1.317,4.831-6.794c-0.214-3.664-2.13-4.734-5.559-4.265
	c-7.25,0.994-14.517,1.847-20.768,2.622c-0.361,1.59-0.405,2.498-0.783,3.227c-0.272,0.529-0.988,0.828-1.576,1.29
	c-0.3-0.989-0.519-1.695-0.743-2.429C742.303,470.96,740.948,471.525,739.394,472.183L739.394,472.183z M1266.39,442.22
	c0.066,5.699,2.607,8.513,6.723,10.933c2.027,1.191,3.371,4.522,3.877,7.109c0.668,3.416,0.143,7.057,0.256,10.6
	c0.105,3.529,2.367,4.871,5.551,4.774c3.051-0.091,4.422-1.993,4.207-4.918c-0.682-9.204-0.74-18.523-2.346-27.563
	c-1.961-11.041-5.293-21.832-7.947-32.757c-1.855-7.628-3.477-15.311-5.398-22.924c-1.221-4.839-3.635-5.866-8.174-3.921
	c-5.02,2.143-7.938,11.4-5.396,17.09c0.422,0.942,1.357,2.059,1.139,2.836c-1.764,6.143-3.68,12.252-5.691,18.32
	c-1.229,3.709-3.203,7.236-3.988,11.02c-1.146,5.55-0.498,11.642-2.467,16.801c-2.752,7.212-2.93,14.391-2.971,21.796
	c-0.021,3.358,0.959,5.336,4.691,5.252c3.551-0.076,5.859-1.199,6.166-5.23c0.361-4.729,1.35-9.411,1.574-14.138
	c0.16-3.438,1.455-5.209,4.729-6.339c5.066-1.742,5.82-7.766,1.107-10.624c-3.701-2.248-3.895-5.02-3.529-8.572
	c0.576-5.494,0.666-11.051,1.518-16.494c0.543-3.453-0.051-7.601,4.547-10.729c2.209,9.462,4.318,18.237,6.287,27.043
	C1271.876,436.183,1273.437,441.15,1266.39,442.22L1266.39,442.22z M827.485,403.993c2.432,11.179,4.784,21.477,6.764,31.842
	c0.229,1.191-1.292,3.369-2.565,4.06c-2.348,1.263-3.446,2.856-2.115,5.057c1.486,2.465,3.278,4.975,5.527,6.694
	c2.858,2.172,5.128,4.154,4.856,8.15c-0.237,3.526-0.117,7.094,0.066,10.63c0.175,3.271,2.304,4.454,5.365,4.395
	c3.103-0.062,4.579-1.718,4.357-4.696c-0.69-9.358-0.784-18.826-2.42-28.015c-1.964-11.045-5.327-21.832-7.985-32.749
	c-1.854-7.631-3.621-15.283-5.268-22.956c-0.906-4.229-3.33-5.045-7.137-3.967c-5.604,1.59-9.333,11.844-6.358,17.768
	c0.4,0.794,1.369,1.712,1.196,2.316c-1.766,6.167-3.641,12.304-5.638,18.396c-1.312,4-3.332,7.817-4.222,11.896
	c-1.146,5.232-0.498,11.022-2.385,15.885c-2.857,7.35-3.026,14.701-3.01,22.271c0.013,2.857,0.692,4.953,3.998,4.944
	c3.216-0.015,6.308-0.324,6.771-4.562c0.57-5.184,1.397-10.35,1.75-15.551c0.212-3.102,1.47-4.567,4.388-5.596
	c1.66-0.581,3.81-2.609,3.897-4.092c0.129-2.103-0.846-5.332-2.42-6.271c-4.087-2.439-4.003-5.642-3.536-9.509
	c0.606-5.022,0.61-10.117,1.351-15.117C823.241,411.675,822.661,407.512,827.485,403.993L827.485,403.993z M1520.466,431.064
	c0.107,0,0.213-0.009,0.32-0.009c0,7.246,0.027,14.491-0.014,21.729c-0.039,8.549-5.014,13.555-13.52,13.658
	c-6.307,0.076-11.881-6.149-11.199-12.416c0.186-1.665,0.025-3.368,0-5.056c-0.174-10.936-0.908-21.896-0.348-32.789
	c0.453-8.805,0.973-18.343,13.133-20.204c3.748-0.572,3.588-4.269,2.988-7.192c-0.32-1.522-1.229-3.347-2.455-4.16
	c-2.439-1.631-4.959-0.829-7.025,1.205c-1.508,1.492-2.895,3.164-4.574,4.447c-8.506,6.507-12.039,14.846-11.492,25.693
	c0.586,11.776,0.76,23.711-0.48,35.41c-1.48,14.067,10.254,28.589,26.373,26.039c6.08-0.964,11.986-3.942,14.213-10.404
	c1.467-4.297,2.188-9.001,2.361-13.552c0.559-14.785,0.906-29.585,0.959-44.379c0.041-7.838-0.773-15.642-10.146-18.491
	c-1.666-0.506-3.414-0.77-5.119-1.146c0.146,2.374-0.4,5.095,0.586,7.059c2.16,4.311,5.666,7.898,5.494,13.282
	C1520.306,416.875,1520.466,423.97,1520.466,431.064L1520.466,431.064z M986.8,401.194c-0.256,2.767-0.529,6.956-1.107,11.112
	c-0.266,1.915-0.68,4.094-1.811,5.55c-3.084,4.017-17.453,7.401-20.674,3.935c-3.021-3.263-3.852-8.686-5.254-13.276
	c-0.49-1.599,0.693-3.688,0.25-5.324c-1.117-4.102-2.723-8.066-3.953-11.562c-4.679-0.338-4.047,2.396-3.934,4.695
	c0.438,9.68,0.883,19.359,1.441,29.04c0.164,3.022-2.526,7.169,3.016,8.376c0.408,0.081,0.572,1.295,0.986,2.33
	c-1.281,0.233-2.254,0.42-2.697,0.498c-0.191,1.084-0.295,2.104-0.543,3.082c-0.762,2.963-2.143,5.889-2.262,8.874
	c-0.311,7.848,0.037,15.718-0.129,23.581c-0.086,3.839,1.771,4.69,5.133,4.65c3.303-0.036,6.123,0.139,6.131-4.562
	c0.006-10.779,0.367-21.56,0.512-32.338c0.074-5.99,0.008-5.965,5.789-5.911c4.508,0.036,9.016,0.008,13.527,0.008
	c0.383,0.938,0.963,2.131,1.361,3.382c1.268,4.013,3.229,7.986,3.537,12.08c0.58,7.675,0.113,15.414,0.266,23.129
	c0.029,1.364,0.641,3.603,1.49,3.882c1.568,0.512,4.049,0.505,5.174-0.447c1.303-1.082,2.094-3.406,2.17-5.229
	c0.25-5.852,0.076-11.723,0.043-17.589c-0.043-8.89,1.238-18.108-6.338-24.472c1.922-3.053,4.199-5.406,4.936-8.171
	c1.037-3.807,1.43-7.963,1.148-11.905c-0.408-5.602-1.174-11.284-2.699-16.669c-2.391-8.421-7.062-10.319-14.672-7.102
	c-7.268-5.835-15-1.378-22.828-2.207c0.529,1.561,0.809,2.395,1.125,3.332c3.58-3.197,6.648-2.91,10.299-0.091
	c2.82,2.186,6.143,3.726,9.295,5.472c2.23,1.238,4.832,2.014,6.717,3.627C984.07,396.534,985.187,398.91,986.8,401.194
	L986.8,401.194z M1346.466,382.43c0-0.008,0-0.014,0-0.014c-0.627,0-1.254,0.051-1.854-0.01
	c-15.893-1.711-23.664,6.588-23.566,23.057c0.008,1.876,1.629,3.691,2.203,5.631c0.391,1.289,0.867,3.511,0.264,3.986
	c-3.377,2.646-2.443,5.956-2.172,9.326c0.354,4.35,0.662,8.732,0.541,13.086c-0.156,5.837-0.871,11.646-1.084,17.483
	c-0.061,1.601,0.738,4.579,1.334,4.63c4.199,0.348,3.279,3.746,3.996,6.062c2.678,8.632,5.193,11.06,12.459,11.281
	c4.932,0.143,9.879,0.042,14.812,0c4.561-0.039,8.32-2.104,10.293-6.013c4.279-8.45,5.773-17.61,4.787-27.017
	c-0.146-1.427-2.146-3.553-3.547-3.771c-3.92-0.633-7.973-0.543-11.973-0.528c-2.508,0.008-4.68,0.912-4.654,3.949
	c0.014,2.944-1.199,6.696,3.08,7.669c4.48,1.02,4.986,5.05,4.934,7.839c-0.039,2.097-3.053,4.977-5.4,6.048
	c-7.92,3.604-14.959,0.014-16.213-8.527c-1.293-8.761-2.057-17.664-2.17-26.513c-0.127-9.833,0.529-19.688,1.33-29.486
	c0.16-1.868,2.359-3.846,4.053-5.226c1.055-0.866,2.934-0.745,4.453-1.002c8.014-1.356,10.428-0.082,14.041,7.326
	c1.213,2.475,6.186,3.627,9.934,2.701c3.76-0.935,3.879-3.469,3.293-6.385c-1.506-7.441-7.467-16.932-18.094-15.612
	C1349.88,382.603,1348.16,382.43,1346.466,382.43L1346.466,382.43z M1193.361,472.084c0.76,0.97,1.055,1.747,1.469,1.817
	c4.895,0.821,11.271-2.776,13.738-7.441c5.99-11.34,0.451-21.644-3.523-31.665c-1.84-4.63-2.246-7.735,0.469-11.799
	c6.699-10.056,5.412-20.688,0.604-30.84c-2.217-4.684-6.463-8.445-12.238-8.83c-7.484-0.49-14.994-0.731-22.49-0.866
	c-7.664-0.138-7.967,0.149-8.092,8.021c-0.16,9.175-0.154,18.357-0.07,27.532c0.15,16.165,0.182,32.343,0.693,48.497
	c0.377,11.665-1.049,10.216,10.23,10.352c0.768,0.007,1.576,0.202,2.299,0.038c1.328-0.302,2.609-0.807,3.912-1.229
	c-0.686-1.682-1.24-3.438-2.102-5.022c-0.453-0.835-1.998-1.317-2.088-2.07c-0.598-5.089-1.223-10.211-1.273-15.328
	c-0.055-4.674,0.941-9.371,0.836-14.047c-0.084-3.427-0.424-6.278,2.225-9.346c1.402-1.621,0.799-7.697,0.277-7.804
	c-3.949-0.829-3.18-3.566-3.318-6.084c-0.125-2.308-0.775-4.665-0.449-6.89c0.963-6.713-1.873-14.205,3.896-19.927
	c8.33,0.627,13.812,5.127,18.041,12.146c4.357,7.237,0.18,18.839-8.119,20.334c-3.814,0.69-4.645,2.034-2.436,5.059
	c3.838,5.216,7.6,10.509,11.77,15.453c3.676,4.359,4.213,9.048,2.902,14.256c-1.217,4.811-2.441,9.612-3.818,15.003
	C1196.398,471.466,1195.236,471.7,1193.361,472.084z M1416.933,420.579c0.6-0.259,1.213-0.515,1.812-0.777
	c1.24,1.832,2.787,3.534,3.654,5.523c2.387,5.452,4.453,11.046,6.732,16.551c2.867,6.934,5.961,13.78,8.707,20.77
	c1.387,3.543,2.055,7.355,3.334,10.952c1.4,3.859,4.854,3.183,7.879,3.025c3.188-0.157,3.947-2.361,4.068-5.134
	c0.133-3.528,0.719-7.059,0.693-10.585c-0.107-15.832-0.428-31.666-0.561-47.506c-0.066-8.6-0.014-17.217,0.133-25.82
	c0.053-3.513-1.572-5.27-4.893-5.275c-3.453-0.008-7.174,0.037-7.227,4.997c-0.066,5.647-0.014,11.287-0.041,16.934
	c-0.025,10.424-0.066,20.851-0.105,31.284c-0.014,3.259,0,6.521,0,10.339c-6.307-4.56-3.227-13.527-9.947-16.528
	c-0.867-2.659-1.6-5.419-2.641-8.059c-1.572-3.971-3.559-7.788-5-11.806c-2.666-7.508-5.014-15.121-7.572-22.667
	c-1.121-3.244-3.48-4.194-6.613-2.973c-2.135,0.837-4.174,1.909-6.76,3.105c4.053,5.88,3.572,11.038,0.799,16.647
	c-1.332,2.652-1.906,6.831-0.732,9.31c3.172,6.657,1.84,13.532,2.227,20.266c0.199,3.52-1.373,7.14-2.373,11.754
	c0.293,3.429,0.68,8.127,1.119,13.337c-1.613,0.203-3.346,0.42-5.48,0.687c3.934,3.449,6.455,7.03,6.094,12.632
	c-0.24,3.83,2.986,6.183,7.307,5.533c2.854-0.437,5.508-1.094,5.453-4.93c-0.227-14.476-0.398-28.947-0.52-43.424
	C1416.453,426.022,1416.773,423.297,1416.933,420.579L1416.933,420.579z M994.835,250.334c-0.34-0.101-0.68-0.203-1.018-0.304
	c0.477-1.512,0.529-3.864,1.508-4.351c1.652-0.819,3.904-0.367,5.887-0.618c2.363-0.298,5.775,0.029,6.816-1.353
	c1.711-2.284,1.885-5.726,2.715-8.682c-2.066-0.565-4.115-1.176-6.191-1.67c-0.57-0.135-1.227,0.062-1.84,0.129
	c-5.299,0.603-6.52-0.152-6.398-5.292c0.227-9.693,0.92-19.376,1.281-29.068c0.324-8.851,0.49-17.709,0.656-26.563
	c0.059-2.812-1.32-4.105-4.283-4.14c-3.354-0.04-6.709-0.603-10.07-0.836c-4.428-0.305-7.375,1.737-8.43,6.212
	c-0.693,2.978-1.197,6.084-1.168,9.131c0.053,6.008,1.061,12.04,0.738,18.009c-0.695,12.854,3.258,24.653,7.049,36.58
	c0.566,1.785,0.58,4.553-0.438,5.899c-4.713,6.253-6.83,13.196-7.418,20.895c-1.41,18.361-1.162,36.643,0.934,54.955
	c1.307,11.334,2.791,13.146,13.971,13.201c7.803,0.042,10.629-2.684,10.594-10.568c-0.045-8.483-0.084-16.971-0.461-25.446
	c-0.699-15.834-1.652-31.656-2.52-47.882C995.988,249.27,995.417,249.804,994.835,250.334L994.835,250.334z M1033.806,243.095
	c1.039,1.029,2.434,1.801,2.389,2.468c-0.25,3.375-0.83,6.729-1.381,10.076c-0.24,1.448-1.076,2.877-1.018,4.29
	c0.385,9.025,1.283,18.037,1.357,27.062c0.098,12.17-0.453,24.351-0.588,36.527c-0.051,4.744,3.174,7.775,7.85,7.836
	c3.641,0.041,7.342,0.459,10.916-0.047c1.461-0.207,3.482-2.216,3.799-3.716c0.82-3.879,1.084-7.927,1.123-11.915
	c0.129-13.234,0.189-26.473,0.01-39.704c-0.143-9.85-0.727-19.692-1.07-29.538c-0.137-3.845-0.176-7.697-0.221-11.545
	c-0.145-10.925-0.424-21.849-0.348-32.769c0.061-8.405,0.406-16.816,0.959-25.203c0.248-3.782-2.059-9.412-4.832-9.251
	c-5.361,0.313-10.744,0.905-15.977,2.044c-1.492,0.323-3.574,2.928-3.559,4.465c0.195,15.968,0.793,31.928,1.213,47.892
	c0.107,4.147,0.018,8.3,0.018,12.632c-5.271-3.246-9.885-1.776-14.604,1.198c2.246,2.047,7.908,0.444,6.029,7.215
	c3.154-1.149,5.369-1.956,7.934-2.895C1033.806,241.011,1033.806,242.288,1033.806,243.095L1033.806,243.095z M615.264,311.845
	c-0.026-0.236-0.049-0.471-0.076-0.705c-5.243,0-10.484,0.061-15.728-0.018c-5.32-0.079-8.808-3.068-9.085-8.405
	c-0.291-5.613,0.011-11.256,0.107-16.884c0.265-14.95,0.656-29.9,0.792-44.85c0.062-6.302-0.471-12.609-0.6-18.916
	c-0.323-16.314-0.512-32.628-0.952-48.935c-0.039-1.542-1.568-4.396-2.255-4.351c-5.664,0.374-11.308,1.217-16.917,2.164
	c-0.555,0.089-1.176,1.828-1.176,2.801c0.008,4.395,0,8.812,0.418,13.18c1.149,12.041,0.467,23.993-0.008,36.056
	c-0.629,16.069,1.264,32.237,1.997,48.367c0.571,12.443,0.945,24.899,1.58,37.341c0.281,5.499,0.81,10.999,1.564,16.453
	c0.559,4.049,3.157,6.117,7.381,6.148c8.926,0.064,17.849,0.234,26.775,0.361c10.788,0.155,21.575,0.302,32.363,0.479
	c3.751,0.062,5.868-1.939,6.243-5.445c0.357-3.352,0.285-6.764,0.184-10.141c-0.157-5.224-3.547-7.773-8.828-7.155
	C631.131,310.312,623.192,311.036,615.264,311.845L615.264,311.845z M892.358,170.585c-8.935-0.984-23.41,8.632-26.256,17.576
	c-0.213,0.683,0.065,1.512,0.051,2.273c-0.274,13.02-0.55,26.039-0.846,39.064c-0.134,6.004-0.613,12.02-0.393,18.009
	c0.254,7.012,2.466,14.215,1.407,20.96c-2.273,14.497-0.586,28.586,1.71,42.741c1.344,8.285,12.858,19.187,20.818,21.116
	c12.69,3.077,24.187-0.89,35.566-5.374c13.146-5.184,18.452-22.3,15.937-34.507c-0.674-3.252-2.569-5.333-6.38-5.521
	c-7.515-0.381-13.464,4.673-14.225,12.646c-0.405,4.221-1.486,8.435-5.752,9.759c-6.379,1.979-12.999,3.42-19.621,4.283
	c-4.373,0.573-11.848-7.031-12.043-11.528c-0.424-9.755-0.869-19.521-0.929-29.288c-0.054-8.75,1.214-17.573,0.457-26.239
	c-1.484-16.934,0.056-33.756,0.545-50.619c0.143-5.062,6.185-11.236,10.495-10.539c4.869,0.784,9.522-0.629,14.467-0.029
	c10.34,1.254,15.03,4.991,15.575,15.56c0.209,4.002,2.089,5.986,5.936,6.189c2.3,0.116,4.617,0.093,6.913-0.072
	c3.354-0.241,4.65-2.189,4.861-5.529c0.633-9.835-0.858-18.452-9.447-25.099c-5.838-4.523-14.338-6.58-21.406-3.135
	c0.468,1.176,0.942,2.375,1.941,4.896c-3.729-0.229-6.679-0.415-9.631-0.596c1.311-2.427,2.62-4.854,4.066-7.539
	c-2.708-1.465-6.621-2.989-10.271-0.603c-1.128,0.739-0.403,4.301-0.529,6.569c-0.184,0.253-0.363,0.505-0.545,0.754
	C894.018,174.731,893.2,172.692,892.358,170.585L892.358,170.585z M1474.027,258.343c0.133,0.301,0.279,0.599,0.426,0.901
	c2.094,0,4.188,0.096,6.268-0.024c4.439-0.256,8.879-0.916,13.32-0.877c5.68,0.045,11.346,0.84,17.012,0.904
	c13.068,0.147,13.068,0.049,13.055-13.02c-0.014-7.768-2.533-9.98-10.439-9.084c-7.922,0.9-15.867,1.786-23.773,2.797
	c-4.428,0.565-9.533,0.199-13.055,2.352c-4.787,2.928-8.172-0.427-12.08-0.841c-1.32-0.139-3.279-3.091-3.359-4.82
	c-0.732-18.276-2.867-36.622,1.801-54.729c0.373-1.489,0.68-3.012,0.854-4.54c0.586-5.092-0.348-6.633-5.494-6.856
	c-4.734-0.2-9.506,0.743-14.268,0.781c-3,0.025-4.453,1.069-4.092,4.029c0.492,4.042,1.426,8.04,1.76,12.092
	c0.746,9.476,1.199,18.972,1.879,28.456c0.76,10.505,2.107,20.928-0.693,31.455c-1.213,4.52-0.84,9.541-0.719,14.321
	c0.172,6.009,1.732,12.108,1.039,17.973c-0.867,7.324-2.947,14.425,0.32,21.648c0.4,0.897,0.094,2.125,0.094,3.202
	c0.08,6.576,0.025,13.163,0.279,19.732c0.16,4.037,3.746,6.943,7.52,8.062c4.92,1.467,8.773-2.299,13.988-1.458
	c9.666,1.564,19.693,0.843,29.572,1.072c8.16,0.193,16.348,0.559,24.506,0.453c2.068-0.025,5.588-1.216,5.867-2.453
	c0.934-4.113,1.439-8.651,0.574-12.703c-0.4-1.935-4.188-4.348-6.521-4.448c-6.252-0.268-12.559,0.361-18.785,1.112
	c-4.066,0.485-8.027,1.763-12.014,2.779c-1.934,0.492-3.814,1.2-6.174,1.96c-1.934,2.588-4.254,5.686-6.973,9.34
	c-0.387-3.087-0.746-5.865-1.174-9.311c-2.693,5.023-4.693,5.725-9.053,3.875c0.08-1.498,0.172-2.975,0.266-4.752
	c-1.693,0.156-2.959,0.276-4.854,0.456c0-5.66,0.281-11.051-0.066-16.403c-0.586-9.016-1.799-17.995-2.346-27.012
	c-0.668-10.811,2.307-13.976,12.893-14.811C1472.292,259.88,1473.132,258.904,1474.027,258.343z M780.441,258.584
	c-0.019,0.195-0.036,0.392-0.054,0.591c2.241,0,4.492,0.086,6.73-0.019c5.367-0.244,10.736-0.81,16.101-0.813
	c4.439-0.005,8.872,0.861,13.312,0.904c13.745,0.128,13.745,0.049,13.703-13.75c-0.015-6.728-2.199-9.048-8.843-8.417
	c-9.163,0.864-18.267,2.583-27.442,3.105c-6.817,0.388-13.042,4.67-20.31,2.323c-3.671-1.188-6.146-2.465-6.284-6.6
	c-0.613-19.062-2.521-38.14,2.57-56.996c1.771-6.565-0.468-8.843-7.336-8.659c-3.994,0.107-7.975,1.029-11.957,1.021
	c-3.271-0.003-4.574,1.167-4.337,4.313c0.429,5.704,0.738,11.413,1.296,17.106c0.992,10.117,2.537,20.196,3.073,30.336
	c0.419,7.854,1.45,15.871-1.363,23.624c-0.446,1.228-0.157,2.748-0.099,4.127c0.286,6.789,0.576,13.574,0.93,20.356
	c0.554,10.584-4.9,21.153-0.07,31.753c0.173,0.377-0.038,0.916-0.032,1.376c0.065,6.577,0.018,13.164,0.249,19.737
	c0.151,4.237,3.676,7.241,7.809,8.255c4.873,1.193,8.771-2.367,13.989-1.478c8.878,1.508,18.155,0.638,27.263,0.86
	c8.636,0.211,17.264,0.662,25.897,0.761c2.958,0.033,6.457,0.289,7.143-4.076c1.53-9.796,0.527-13.683-4.128-15.48
	c-0.696-0.272-1.507-0.402-2.251-0.358c-6.423,0.408-12.864,0.649-19.251,1.398c-3.903,0.456-7.73,1.663-11.563,2.639
	c-2.092,0.532-4.128,1.281-6.345,1.979c-2.107,2.807-4.41,5.873-7.06,9.398c-0.348-3.081-0.656-5.825-1.032-9.153
	c-2.271,4.339-5.033,5.843-9.131,4.033c0-1.756,0-3.336,0-5.194c-1.53,0.253-2.684,0.444-4.011,0.664
	c-0.139-0.916-0.323-1.66-0.357-2.409c-0.544-11.858-1.139-23.717-1.559-35.58c-0.164-4.636-0.441-9.367,0.272-13.908
	c0.806-5.162,5.074-7.299,10.471-6.555C777.69,259.971,779.105,259.018,780.441,258.584L780.441,258.584z M1131.615,272.233
	c0.271,3.705-0.461,6.972,0.854,8.729c2.434,3.283,6.119,5.617,9.16,8.477c3.201,3.024,8.193,5.791,8.969,9.41
	c1.486,6.875,0.529,14.278,0.559,21.462c0.031,6.989,3.416,10.641,9.795,10.513c4.102-0.079,6.896-4.289,6.58-10.328
	c-0.506-9.589-1.494-19.164-1.703-28.757c-0.324-14.615-3.846-28.623-7.365-42.629c-3.49-13.883-7.48-27.639-11.156-41.476
	c-1.141-4.291-1.971-8.659-2.965-12.985c-1.721-7.501-3.41-15.015-5.217-22.496c-0.928-3.834-3.332-4.991-7.305-4.332
	c-2.91,0.483-5.775,0.781-8.158,2.602c-1.666,1.277-3.68,2.525-4.576,4.279c-1.389,2.69-1.877,5.827-2.855,8.733
	c-1.787,5.308-3.326,11.891,0.602,15.421c4.537,4.087,1.17,7.109,0.611,10.023c-1.268,6.548-3.656,12.902-5.904,19.221
	c-1.197,3.365-3.016,6.512-4.635,9.717c-0.906,1.771-2.52,3.356-2.873,5.201c-1.764,9.01-3.613,18.038-4.629,27.148
	c-0.793,7.097-0.904,14.136-3.975,20.875c-5.246,11.551-3,23.987-3.375,36.09c-0.039,1.06,0.646,2.604,1.498,3.147
	c4.23,2.71,8.717,1.925,13.195,0.49c4.061-1.301,3.781-4.838,4.113-7.959c0.689-6.475,1.154-12.971,1.811-19.449
	c0.303-3.046,0.82-6.069,1.26-9.1c0.443-3.124,1.629-5.234,5.195-6.115c3.053-0.749,6.957-2.041,8.428-4.386
	c3.738-5.954,1.445-13.171-4.848-16.311c-4.154-2.073-5.623-4.897-5.156-9.197c0.232-2.135,0.488-4.267,0.654-6.404
	c0.693-8.859,0.883-17.792,2.195-26.56c1.012-6.711-0.113-14.52,6.906-19.639c2.971,8.834,6.361,17.117,8.48,25.71
	c2.486,10.095,3.812,20.468,5.76,30.703c0.617,3.243-0.572,5.41-3.301,6.876C1135.845,270.22,1133.38,271.357,1131.615,272.233
	L1131.615,272.233z M1742.093,256.25c-0.387,0.263-0.773,0.524-1.16,0.783c0.641,1.826,1.08,3.751,1.973,5.444
	c1.467,2.824,4.174,5.333,4.668,8.258c1.238,7.316,1.932,14.78,2.119,22.199c0.293,11.711,0.014,23.438-0.094,35.157
	c-0.039,3.466,1.441,4.805,4.975,5.083c8.16,0.647,10.545-4.836,10.533-10.831c-0.014-17.881-0.801-35.76-0.773-53.64
	c0-7.7-3.867-13.177-8.508-18.35c-3.32-3.701-3.279-3.938,0.654-7.287c2.439-2.069,5.094-4.986,5.68-7.916
	c1.387-6.965,1.654-14.163,2.254-21.274c0.252-3.062,0.133-6.149,0.307-9.22c0.199-3.491,1.252-7.157-3.041-9.243
	c-0.627-0.301-1.32-1.873-1.053-2.357c1.893-3.478-0.32-6.246-0.92-9.439c-1.24-6.66-5.254-10.595-10.494-13.743
	c-5.359-3.223-12.652-0.716-15.133,5.116c-5.014-10.505-14.467-5.391-22.666-6.319c1.307,2.865,2.84,5.572,4.92,7.776
	c0.346,0.374,2.986-1.409,4.812-2.317c0.359,0.599,1.053,1.448,1.387,2.42c1.561,4.409,4.227,6.955,9.268,6.212
	c0.812-0.117,1.92,0.271,2.586,0.807c4.52,3.606,8.721,7.656,13.494,10.891c3.68,2.491,6.092,4.575,2.412,8.909
	c-0.426-0.885-0.826-1.714-1.6-3.297c0,7.242,0.107,13.563-0.039,19.88c-0.107,5.209-1.947,9.352-6.84,12.228
	c-10,5.892-20.668,6.302-31.748,5.062c-3.08-0.343-4.199-1.463-4.506-4.524c-0.348-3.553,0.32-7.229-3.24-10.328
	c-2.506-2.17-3.334-6.264-5.094-9.907c2.254-0.613,3.494-0.952,4.693-1.28c-0.826-7.978-7.266-25.011-9.732-28.408
	c-1.867,0.616-3.654,1.203-5.627,1.851c0.773,23.804,1.52,47.525,2.307,71.851c1.826-1.281,3.133-2.193,4.92-3.441
	c0.24,3.962,5.014,7.976-1.893,9.936c0.559,1.267,0.986,2.24,1.412,3.212c-1.133,0.157-2.279,0.32-3.412,0.486
	c-1.334,4.851-3.588,9.662-3.814,14.559c-0.547,12.604-0.506,25.263-0.105,37.877c0.387,12.267,0.719,12.255,13.293,12.131
	c4.84-0.05,6.359-1.376,6.492-6.253c0.4-13.993,0.748-27.993,0.988-41.988c0.105-6.326-0.121-12.658-0.146-18.983
	c-0.014-7.501,0.691-8.033,8.412-7.15c1.973,0.225,4-0.031,6,0.06c5.279,0.238,10.547,0.543,16.561,0.863
	c0.119-0.21,0.787-1.327,1.506-2.54C1740.107,255.597,1741.093,255.925,1742.093,256.25L1742.093,256.25z M1327.794,300.403
	c2.713,7.048,5.553,13.283,7.498,19.777c2.508,8.353,8.84,12.1,16.268,12.039c8.787-0.07,17.572,0.021,26.373,0.25
	c14.973,0.396,21.973-12.349,24.881-23.906c1.252-5.021,0.307-10.697,2.039-15.469c2.24-6.152,2.08-12.077,1.32-18.196
	c-0.734-5.777-2.227-7.007-8.107-7.271c-5.68-0.253-11.373-0.46-17.053-0.701c-8.373-0.358-11.268,2.432-11.16,10.811
	c0.014,1.384,0.107,2.783,0.307,4.147c0.574,3.754,2.613,5.496,6.586,5.692c1.693,0.083,3.922,1.568,4.773,3.064
	c1.654,2.911,2.574,6.25,3.613,9.473c0.307,0.946,0.455,2.536-0.092,3.06c-3.014,2.952-5.854,7.171-9.494,8.116
	c-5.906,1.531-12.439,1.496-18.586,0.893c-4.135-0.406-7.762-3.457-8.48-8.143c-1.467-9.381-3.613-18.809-3.6-28.213
	c0.012-7.204-0.027-14.035-2.641-20.797c-0.561-1.451-0.08-3.32,0.014-4.989c0.799-16.104,1.906-32.196,2.32-48.307
	c0.199-7.697,2.332-11.101,10.053-12.104c4.094-0.531,8.227-0.817,12.334-1.225c9.293-0.92,14.865,3.057,17.32,12.093
	c0.453,1.64,1.426,4.011,2.68,4.398c3.76,1.172,7.785,2.202,11.666,2.069c8.881-0.301,11.107-3.576,8.947-12.213
	c-0.707-2.827-1.533-5.703-2.854-8.289c-6-11.851-14.721-19.616-29.027-18.813c-4.146,0.235-8.334,0.31-12.48-0.019
	c-8.666-0.683-16.746,0.821-24.613,4.753c-7.391,3.701-11.002,8.84-10.723,17.097c0.031,0.876,0.008,1.753,0.008,2.633
	c-0.135,0-0.264,0-0.398,0.003c-0.369-1.9-0.74-3.799-1.311-6.733c-2.934,4.411-4.352,7.643-2.346,11.78
	c0.686,1.419-0.025,3.518-0.121,5.304c-0.219,4.093-0.551,8.184-0.566,12.278c-0.006,0.58,1.727,1.832,2.223,1.639
	c2.973-1.139,3.078,1.923,3.107,2.733c0.082,2.726-0.574,5.47-1.018,8.719c-0.973-1.407-1.674-2.432-3.121-4.535
	c-0.688,5.337-1.236,9.495-1.734,13.66c-0.113,0.883-0.379,2.001,0.016,2.653c3.49,5.745,3.527,11.644,2.285,18.159
	c-1.629,8.522-2.27,17.249-3.107,25.911c-0.654,6.789-0.152,13.469,3.537,20.069
	C1326.195,302.577,1326.822,301.724,1327.794,300.403L1327.794,300.403z M1555.32,169.804c1.066,2.48,2.014,4.305,2.641,6.24
	c1.014,3.151,1.826,6.361,2.666,9.567c0.547,2.159,1.373,4.351,1.373,6.525c0.014,5.63-0.426,11.261-0.547,16.893
	c-0.307,13.397-0.666,26.797-0.746,40.195c-0.107,16.783,0.107,33.562,0.066,50.341c-0.014,8.605,3.16,15.979,8.52,22.416
	c2.334,2.798,4.975,6.033,8.174,7.282c8.574,3.348,17.654,3.748,26.787,2.398c-0.08-1.135-0.146-2.031-0.293-4.357
	c3.812,1.545,6.732,2.773,9.68,3.904c1.119,0.434,2.334,0.911,3.52,0.922c9.881,0.082,17.508-4.109,22.867-12.407
	c1.414-2.191,3.199-4.273,4.027-6.679c2.773-8.102,6.213-16.176,7.453-24.544c1.014-6.959-0.668-14.328-1.254-21.501
	c-0.4-4.735-1.346-9.445-1.414-14.176c-0.146-10.175,0.135-20.352,0.201-30.53c0.105-13.08-0.361-26.194,0.506-39.217
	c0.494-7.354-0.826-12.168-7.719-15.836c-9.24-4.918-15.174-2.243-15.229,8.179c-0.039,9.632,0.574,19.267,0.773,28.901
	c0.16,7.724,0.135,15.456,0.215,23.183c0.092,9.688,0.572,19.387,0.213,29.056c-0.494,13.086-2.188,26.144-2.268,39.224
	c-0.053,7.53-3.252,12.324-8.387,16.977c-2.746,2.487-5.32,2.496-8.453,1.85c-1.6-0.331-3.279-0.232-4.92-0.331
	c-2.027-0.232-4.107-1.039-6.08-2.068c-1.76-0.916-4.186-1.697-4.906-3.208c-1.586-3.317-2.693-6.996-3.213-10.643
	c-2.508-17.52-5.734-34.972-5.201-52.813c0.174-5.529-0.467-11.081-0.732-16.623c-0.307-6.447-0.906-12.896-0.867-19.339
	c0.066-11.836,0.439-23.668,0.84-35.496c0.094-2.872-1.24-3.992-3.719-4.965C1571.519,165.854,1563.533,169.445,1555.32,169.804
	L1555.32,169.804z M1194.113,300.729c1.742,2.462,2.633,5.194,4.307,5.801c5.941,2.17,4.883,6.997,4.5,11.155
	c-0.65,7.102,2.887,13.005,9.68,14.753c8.48,2.187,14.029-2.632,13.209-11.101c-0.73-7.637-1.305-15.319-1.373-22.99
	c-0.098-12.149,0.303-24.303,0.451-36.456c0.092-7.697-0.029-15.397,0.25-23.087c0.068-1.999,1.275-3.961,1.908-5.783
	c9.09,2.726,8.549,10.159,10.229,16.311c0.566,2.068,0.67,4.354,1.629,6.212c3.936,7.636,8.242,15.077,12.168,22.719
	c5.373,10.458,11.617,20.615,11.822,32.995c0.037,2.022,1.43,4.013,2.154,6.035c0.732,2.005,1.697,3.98,2.059,6.058
	c1.447,8.291,11.762,12.722,18.652,7.705c1.455-1.059,2.895-3.172,3.006-4.882c0.59-9.009,0.906-18.045,1.027-27.073
	c0.127-9.507-0.076-19.014-0.129-28.52c-0.051-9.943-0.08-19.888-0.158-29.835c-0.031-4.46-0.219-8.922-0.189-13.385
	c0.105-16.925,0.297-33.851,0.387-50.776c0.021-4.213-2.693-7.327-6.711-8.063c-8.664-1.579-13.156,1.543-14.535,10.064
	c-0.398,2.44-1.107,4.856-1.199,7.298c-0.143,3.656,0.084,7.336,0.252,10.999c0.299,6.847,0.705,13.688,1,20.534
	c0.135,3.016,0.248,6.05,0.113,9.061c-0.377,8.455-1.199,16.903-1.258,25.357c-0.055,7.219,0.85,14.436,1.018,21.664
	c0.045,1.715-1.164,3.458-1.795,5.189c-0.527-0.098-1.059-0.195-1.584-0.293c-2.436-7.219-4.771-14.472-7.352-21.637
	c-1.232-3.415-3.09-6.472-6.83-6.363c-1.152-3.773-1.982-7.483-3.422-10.938c-1.223-2.93-3.611-5.406-4.652-8.372
	c-2.932-8.332-6.084-16.672-7.945-25.271c-2.449-11.256-5.646-22.04-11.717-31.928c-2.938-4.791-5.436-5.76-10.711-3.487
	c-1.635,0.708-3.527,0.841-5.805,1.35c-0.301,0.441-0.844,2.168-1.869,2.544c-3.506,1.291-2.896,3.152-1.463,5.624
	c2.684,4.652,3.242,9.449,2.781,14.988c-0.482,5.688-7.434,9.911-3.416,16.352c0.098,0.166-0.506,0.724-0.707,1.133
	c-2.17,4.377-2.443,8.631,0.453,12.9c0.898,1.327,1.529,3.049,1.643,4.642c0.678,9.276,2.238,18.677,1.305,27.814
	c-0.514,5.018,1.514,12.783-7.035,14.904c0.725,1.565,1.08,2.966,1.898,4.008c3.01,3.813,2.564,7.911,1.572,12.254
	c-0.395,1.738-0.416,3.856,0.219,5.48c1.836,4.679,1.156,6.042-3.84,6.329C1197.107,300.779,1196.095,300.729,1194.113,300.729
	L1194.113,300.729z M268.091,218.352c-0.118-1.471,0.156-3.303-0.343-3.548c-4.023-1.948-3.823-6.107-2.985-8.707
	c1.455-4.513,1.915-8.621,0.415-12.842c-1.019-0.105-2.458,0.139-2.779-0.351c-1.597-2.442-3.185-4.964-4.256-7.667
	c-3.177-8.021-10.606-12.78-14.935-19.892c-0.068-0.113-0.324-0.11-0.39-0.219c-2.034-3.468-6.818-5.986-3.984-10.637
	c-1.688-1.066-3.196-2.024-4.708-2.982c1.072-0.719,2.147-1.44,3.028-2.039c-0.625-1.281-2.282-3.249-1.84-4.022
	c1.72-3.029-2.069-4.586-2.197-4.58c-5.16,0.34-3.336-3.358-3.207-5.115c-31.808,0.671-63.321,1.335-95.836,2.02
	c0,121.575,0,242.647,0,364.975c15.096,0,29.719-0.008,44.34,0c17.227,0.014,34.46,0.265,51.684-0.053
	c5.447-0.099,10.871-1.683,16.303-2.586c-0.008-0.5-0.016-0.996-0.023-1.493c-1.556-0.694-3.117-1.388-3.64-1.621
	c0.217-2.798-0.024-5.216,0.665-7.338c1.162-3.556,2.919-6.925,4.423-10.38c0.378,0.182,0.76,0.361,1.143,0.536
	c0.206-1.446,0.139-3.008,0.666-4.336c1.769-4.423,3.752-8.768,5.632-13.146c0.279-0.655,0.84-1.729,0.599-1.992
	c-4.741-5.154,1.739-12.581-3.557-17.6c-0.147-0.145,0.154-0.899,0.384-1.284c1.949-3.285,3.932-6.561,5.907-9.839
	c-1.108-0.264-2.356-0.558-4.108-0.974c2.519-3.263,4.723-6.126,6.996-9.074c-0.708-0.287-1.673-0.672-3.21-1.288
	c2.532-1.331,4.444-2.322,6.504-3.402c-1.103-1.17-1.774-1.878-2.619-2.766c1.859-1.358,3.445-2.519,5.29-3.861
	c-3.717-5.526,2.008-7.832,4.075-11.525c-0.8-0.386-1.452-0.701-2.266-1.088c5.333-4.183-3.247-6.451-1.305-10.222
	c-1.372-0.37-2.744-0.731-3.781-1.009c0.54-7.066,1.083-14.167,1.621-21.26c-0.347-0.054-0.693-0.101-1.044-0.154
	c-0.673,0.756-1.345,1.503-2.02,2.258c-0.373-0.062-0.743-0.121-1.112-0.183c0.788-6.093-2.465-12.333,1.093-17.181
	c-3.103-2.719-6.193-5.016-8.584-7.885c-0.473-0.57,1.73-3.369,2.925-5.555c-2.985-0.452-6.525-0.99-9.201-1.398
	c1.723-5.096,2.405-10.158,4.968-13.947c3.284-4.844-3.065-9.242,0.812-13.37c-1.487-0.791-2.65-1.414-5.188-2.767
	c2.175-0.867,3.593-1.429,4.557-1.813c-1.707-3.26-2.868-5.476-4.157-7.938c2.699-2.535,1.827-8.739,8.089-8.161
	c-2.006-0.4-4.012-0.796-6.732-1.335c4.735-3.065,0.354-5.364,0.192-7.995c-0.212-3.465-2.103-7.169,0.817-10.309
	c1.524-1.636,3.585-2.787,5.036-4.471c1.135-1.316,2.553-3.247,2.345-4.687c-0.499-3.475,1.397-6.608,5.076-7.015
	c0.329-0.033,0.626-0.347,1.221-0.696c-1.092-0.661-1.917-1.161-2.608-1.576c2.981-4.32,5.817-8.425,8.679-12.568
	c-1.475-0.914-2.62-1.628-2.934-1.82c1.328-6.542,2.56-12.607,3.965-19.519C270.265,216.516,269.263,217.364,268.091,218.352
	L268.091,218.352z M365.245,427.905c-1.774,1.047-3.957,2.088-3.875,2.328c1.131,3.266,2.583,6.424,4.195,10.163
	c-0.393,0.544-1.229,1.695-2.062,2.849c0.382-0.051,0.759-0.111,1.139-0.171c0.397,2.698,1.737,5.707,0.981,8.028
	c-1.407,4.281-0.565,7.351,2.769,10.021c-4.04,2.983-7.693,16.982-5.925,20.354c-3.44,2.179-7.289,3.849-10.12,6.597
	c-3.495,3.376-1.741,8.639,3.026,9.232c6.216,0.773,12.537,0.756,18.817,0.897c13.931,0.32,27.817-0.405,41.676-1.913
	c11.712-1.276,23.431-2.483,35.153-3.597c13.881-1.318,27.766-2.534,41.652-3.731c2.564-0.227,3.507-1.522,3.358-3.943
	c-0.277-4.604-0.606-9.205-0.764-13.812c-0.644-19.353-1.211-38.706-1.854-58.049c-0.549-16.365-1.167-32.727-1.742-49.086
	c-0.656-18.6-1.271-37.197-1.96-55.792c-0.567-15.346-1.17-30.688-1.836-46.025c-0.791-18.203-1.882-36.395-2.458-54.6
	c-0.646-20.321-0.888-40.655-1.245-60.98c-0.108-6.175,0.004-12.354-0.033-18.527c-0.007-1.327-0.222-2.65-0.369-4.271
	c-3.141,0-5.911-0.155-8.659,0.027c-17.425,1.145-34.852,2.366-52.278,3.557c-5.04,0.344-10.083,0.656-15.127,0.981
	c-14.228,0.921-28.445,2.02-42.686,2.623c-3.137,0.135-6.349-1.474-9.391-2.247c0.454,1.893,1.112,4.641,1.544,6.445
	c-8.042,4.528-11.604,10.948-12.177,19.365c5.032,3.938,8.357,11.296,7.666,16.001c0.79,1.285,1.162,2.406,1.104,3.505
	c-0.108,2.035-1.149,4.267-0.609,6.057c2.564,8.519-0.324,9.073-5.368,12.507c0.562,0.848,1.135,1.712,1.798,2.714
	c-1.989,1.903-3.886,3.712-5.893,5.632c0.054,0.593,0.524,2.321,0.178,2.506c-1.591,0.843-3.411,1.253-5.255,1.855
	c-0.089,1.281-0.629,3.24-0.256,5.005c0.717,3.385,2.979,6.748,2.694,9.951c-0.293,3.34,0.306,5.873,1.813,8.572
	c0.317,0.565-0.004,1.479-0.007,2.232c-0.015,4.316,0.539,8.319,5.947,9.646c-0.082,0.4-0.161,0.8-0.24,1.2
	c-1.541,0.438-3.08,0.877-4.572,1.299c0.274,1.117,4.78,1.411,1.723,2.975c1.263,2.028,2.639,3.752,3.449,5.708
	c0.554,1.345-0.095,3.212,0.524,4.494c1.253,2.6,3.131,4.892,4.488,7.452c0.544,1.021-0.004,2.706,0.639,3.585
	c2.781,3.803,2.205,7.135-1.061,10.12c4.692,5.812,4.788,6.917,1.172,12.05c0.638,1.118,1.281,2.236,2.285,3.984
	c-2.812,0.476-5.078,0.856-8.041,1.357c1.704,1.971,2.997,3.465,4.289,4.959c-0.278,0.232-0.557,0.466-0.834,0.704
	c-1.023-0.555-2.048-1.108-3.466-1.874c-0.388,2.819,0.022,5.748-1.206,7.561c-2.998,4.414,0.29,8.255,1.911,10.646
	c2.45,3.617,1.315,5.525-0.151,7.701c-0.558,2.443,5.789,3.506,0.275,6.293c1.021,0.623,1.896,1.155,2.642,1.611
	c-0.647,3.351-1.27,6.557-1.892,9.763c-0.335-0.022-0.671-0.04-1.003-0.063c0.856,1.315,1.715,2.631,2.536,3.893
	c-1.514,0.397-2.653,0.693-3.787,0.994c0.37,1.115,0.663,2.275,1.134,3.346c0.427,0.979,1.569,1.914,1.504,2.805
	c-0.376,5.172,0.121,9.656,5.007,13.035c0.994,0.686,1.19,3.437,3.37,4.023c-1.376,4.434,2.864,3.183,4.864,4.736
	c-3.516,2.773-2.264,5.32,0.146,8.232c2.686,3.256,3.682,6.967,3.855,11.52c0.139,3.665-2.967,9.619,3.471,11.028
	c-1.436,5.12-2.775,9.899-4.323,15.436c-0.121,0.035-1.538,0.548-2.883,1.038C364.883,424.656,365.113,426.713,365.245,427.905"/>
<path id="path18" fill="#353638" d="M365.245,427.905c-0.132-1.192-0.362-3.249-0.609-5.481c1.345-0.49,2.762-1.003,2.883-1.038
	c1.548-5.536,2.888-10.315,4.323-15.435c-6.438-1.41-3.332-7.364-3.471-11.029c-0.174-4.553-1.17-8.264-3.855-11.52
	c-2.41-2.912-3.662-5.459-0.146-8.231c-2-1.555-6.24-0.304-4.864-4.737c-2.18-0.587-2.376-3.338-3.37-4.023
	c-4.886-3.379-5.383-7.863-5.007-13.035c0.065-0.891-1.077-1.826-1.504-2.805c-0.471-1.07-0.764-2.23-1.134-3.346
	c1.134-0.301,2.273-0.597,3.787-0.994c-0.821-1.262-1.68-2.577-2.536-3.893c0.332,0.023,0.668,0.041,1.003,0.063
	c0.622-3.206,1.244-6.412,1.892-9.763c-0.746-0.456-1.62-0.988-2.642-1.611c5.514-2.787-0.833-3.85-0.275-6.293
	c1.467-2.176,2.602-4.084,0.151-7.701c-1.621-2.391-4.909-6.232-1.911-10.645c1.229-1.813,0.818-4.743,1.206-7.562
	c1.418,0.765,2.442,1.319,3.466,1.874c0.277-0.237,0.556-0.472,0.834-0.704c-1.292-1.493-2.585-2.988-4.289-4.959
	c2.963-0.501,5.229-0.881,8.041-1.357c-1.004-1.748-1.647-2.867-2.285-3.984c3.616-5.134,3.521-6.239-1.172-12.051
	c3.266-2.985,3.842-6.317,1.061-10.12c-0.643-0.88-0.095-2.564-0.639-3.585c-1.357-2.56-3.235-4.852-4.488-7.452
	c-0.619-1.282,0.029-3.148-0.524-4.494c-0.811-1.956-2.187-3.68-3.449-5.708c3.058-1.564-1.448-1.857-1.723-2.975
	c1.492-0.421,3.031-0.861,4.572-1.298c0.079-0.4,0.158-0.8,0.24-1.2c-5.408-1.327-5.962-5.33-5.947-9.646
	c0.003-0.753,0.324-1.667,0.007-2.232c-1.508-2.699-2.106-5.232-1.813-8.572c0.284-3.203-1.978-6.565-2.694-9.951
	c-0.373-1.766,0.167-3.724,0.256-5.005c1.844-0.602,3.664-1.012,5.255-1.855c0.347-0.185-0.124-1.913-0.178-2.506
	c2.007-1.92,3.903-3.729,5.893-5.632c-0.663-1.002-1.236-1.867-1.798-2.714c5.044-3.434,7.933-3.988,5.368-12.507
	c-0.54-1.791,0.501-4.022,0.609-6.057c0.058-1.099-0.314-2.22-1.104-3.505c0.691-4.706-2.634-12.063-7.666-16.001
	c0.573-8.417,4.135-14.837,12.177-19.365c-0.432-1.804-1.09-4.552-1.544-6.445c3.042,0.773,6.254,2.381,9.391,2.247
	c14.24-0.603,28.458-1.701,42.686-2.623c5.044-0.326,10.087-0.637,15.127-0.981c17.427-1.191,34.854-2.412,52.278-3.557
	c2.748-0.182,5.519-0.027,8.659-0.027c0.147,1.62,0.362,2.944,0.369,4.271c0.037,6.173-0.075,12.352,0.033,18.527
	c0.357,20.325,0.6,40.659,1.245,60.98c0.576,18.206,1.667,36.397,2.458,54.6c0.666,15.337,1.269,30.68,1.836,46.025
	c0.689,18.595,1.304,37.193,1.96,55.792c0.575,16.359,1.193,32.721,1.742,49.087c0.643,19.342,1.21,38.695,1.854,58.048
	c0.157,4.607,0.486,9.208,0.764,13.813c0.148,2.42-0.794,3.716-3.358,3.942c-13.887,1.197-27.771,2.413-41.652,3.731
	c-11.723,1.113-23.441,2.32-35.153,3.597c-13.858,1.508-27.745,2.233-41.676,1.913c-6.28-0.142-12.602-0.124-18.817-0.897
	c-4.768-0.593-6.521-5.855-3.026-9.231c2.83-2.748,6.68-4.419,10.12-6.598c-1.769-3.372,1.885-17.371,5.925-20.354
	c-3.334-2.67-4.176-5.739-2.77-10.021c0.757-2.321-0.584-5.33-0.98-8.027c-0.381,0.059-0.757,0.119-1.139,0.17
	c0.834-1.153,1.67-2.305,2.062-2.849c-1.612-3.739-3.064-6.897-4.195-10.163C361.288,429.993,363.471,428.952,365.245,427.905"/>
<path id="path20" fill="#353638" d="M268.091,218.352c1.172-0.988,2.174-1.836,3.901-3.291c-1.406,6.912-2.638,12.977-3.965,19.519
	c0.313,0.192,1.458,0.907,2.933,1.82c-2.861,4.143-5.697,8.248-8.679,12.568c0.691,0.415,1.516,0.915,2.608,1.576
	c-0.594,0.35-0.892,0.663-1.221,0.696c-3.679,0.406-5.575,3.54-5.076,7.015c0.208,1.44-1.21,3.371-2.345,4.687
	c-1.451,1.684-3.512,2.834-5.036,4.471c-2.92,3.14-1.029,6.844-0.817,10.309c0.161,2.631,4.542,4.93-0.192,7.995
	c2.72,0.539,4.726,0.935,6.732,1.335c-6.263-0.578-5.391,5.626-8.089,8.161c1.289,2.461,2.451,4.677,4.157,7.938
	c-0.964,0.384-2.383,0.947-4.558,1.813c2.538,1.353,3.702,1.976,5.188,2.767c-3.877,4.128,2.472,8.526-0.812,13.37
	c-2.562,3.789-3.245,8.852-4.968,13.947c2.676,0.408,6.216,0.946,9.201,1.398c-1.194,2.186-3.398,4.984-2.925,5.555
	c2.391,2.869,5.481,5.166,8.584,7.885c-3.559,4.848-0.305,11.088-1.093,17.181c0.37,0.062,0.739,0.121,1.112,0.183
	c0.675-0.755,1.347-1.502,2.02-2.258c0.351,0.054,0.698,0.101,1.044,0.154c-0.539,7.093-1.082,14.194-1.622,21.26
	c1.038,0.277,2.409,0.639,3.781,1.009c-1.941,3.771,6.639,6.039,1.306,10.222c0.813,0.387,1.465,0.702,2.265,1.088
	c-2.067,3.693-7.792,5.999-4.075,11.525c-1.844,1.343-3.431,2.503-5.29,3.861c0.844,0.888,1.516,1.596,2.619,2.766
	c-2.06,1.08-3.972,2.071-6.504,3.402c1.538,0.616,2.503,1.001,3.211,1.288c-2.273,2.948-4.478,5.812-6.996,9.074
	c1.752,0.416,3,0.71,4.108,0.974c-1.975,3.278-3.958,6.554-5.907,9.839c-0.229,0.385-0.531,1.14-0.384,1.284
	c5.296,5.019-1.184,12.445,3.557,17.6c0.241,0.264-0.32,1.338-0.599,1.992c-1.88,4.379-3.863,8.724-5.632,13.146
	c-0.527,1.328-0.46,2.89-0.666,4.336c-0.382-0.175-0.764-0.354-1.143-0.536c-1.504,3.455-3.261,6.824-4.423,10.38
	c-0.689,2.122-0.448,4.54-0.665,7.338c0.522,0.233,2.084,0.927,3.64,1.621c0.006,0.497,0.015,0.993,0.022,1.493
	c-5.432,0.903-10.856,2.487-16.303,2.586c-17.224,0.317-34.457,0.066-51.684,0.053c-14.621-0.008-29.244,0-44.34,0
	c0-122.327,0-243.4,0-364.975c32.515-0.685,64.028-1.349,95.836-2.02c-0.129,1.756-1.953,5.455,3.207,5.115
	c0.128-0.006,3.917,1.551,2.197,4.58c-0.441,0.773,1.215,2.741,1.84,4.022c-0.881,0.599-1.956,1.32-3.028,2.039
	c1.512,0.958,3.02,1.916,4.708,2.982c-2.835,4.651,1.949,7.169,3.984,10.638c0.065,0.108,0.321,0.105,0.389,0.218
	c4.328,7.112,11.757,11.871,14.935,19.892c1.071,2.703,2.659,5.224,4.256,7.667c0.321,0.49,1.76,0.246,2.778,0.351
	c1.5,4.221,1.04,8.329-0.415,12.842c-0.837,2.6-1.037,6.759,2.985,8.707C268.247,215.049,267.974,216.881,268.091,218.352"/>
<path id="path22" fill="#353638" d="M1194.113,300.729c1.982,0,2.994,0.049,3.994-0.007c4.998-0.287,5.678-1.65,3.842-6.329
	c-0.635-1.624-0.613-3.743-0.219-5.48c0.992-4.344,1.438-8.441-1.572-12.254c-0.818-1.042-1.174-2.443-1.898-4.008
	c8.549-2.122,6.521-9.887,7.035-14.904c0.934-9.137-0.627-18.539-1.305-27.814c-0.113-1.592-0.744-3.315-1.643-4.642
	c-2.896-4.269-2.623-8.522-0.453-12.9c0.201-0.409,0.805-0.968,0.707-1.133c-4.018-6.441,2.934-10.664,3.416-16.352
	c0.461-5.539-0.1-10.336-2.781-14.988c-1.434-2.472-2.043-4.333,1.463-5.624c1.025-0.376,1.568-2.103,1.869-2.544
	c2.277-0.508,4.17-0.642,5.805-1.35c5.275-2.273,7.771-1.304,10.711,3.487c6.07,9.888,9.268,20.672,11.717,31.928
	c1.861,8.599,5.014,16.939,7.945,25.271c1.041,2.966,3.43,5.442,4.652,8.372c1.439,3.456,2.27,7.165,3.422,10.938
	c3.74-0.109,5.598,2.948,6.83,6.363c2.58,7.165,4.916,14.418,7.352,21.637c0.525,0.099,1.057,0.196,1.584,0.293
	c0.631-1.731,1.84-3.475,1.795-5.189c-0.168-7.228-1.072-14.445-1.018-21.664c0.059-8.455,0.881-16.903,1.256-25.357
	c0.137-3.011,0.023-6.045-0.111-9.061c-0.295-6.846-0.701-13.687-1.002-20.534c-0.168-3.663-0.393-7.342-0.25-10.999
	c0.092-2.442,0.801-4.858,1.199-7.298c1.379-8.521,5.871-11.643,14.535-10.064c4.018,0.736,6.732,3.85,6.709,8.063
	c-0.088,16.925-0.279,33.851-0.385,50.776c-0.029,4.463,0.158,8.925,0.189,13.385c0.078,9.947,0.107,19.892,0.158,29.835
	c0.053,9.506,0.256,19.013,0.129,28.52c-0.121,9.028-0.438,18.064-1.027,27.073c-0.111,1.71-1.551,3.822-3.006,4.882
	c-6.891,5.017-17.205,0.586-18.652-7.705c-0.361-2.078-1.326-4.053-2.059-6.058c-0.725-2.021-2.117-4.012-2.154-6.035
	c-0.205-12.38-6.449-22.536-11.822-32.995c-3.926-7.642-8.232-15.083-12.168-22.719c-0.959-1.857-1.062-4.144-1.629-6.212
	c-1.68-6.152-1.139-13.585-10.229-16.311c-0.633,1.821-1.84,3.784-1.908,5.783c-0.279,7.689-0.16,15.39-0.25,23.087
	c-0.148,12.153-0.549,24.307-0.451,36.456c0.068,7.67,0.643,15.353,1.373,22.99c0.82,8.469-4.729,13.287-13.209,11.101
	c-6.793-1.748-10.33-7.651-9.682-14.753c0.385-4.158,1.443-8.984-4.5-11.155C1196.746,305.924,1195.855,303.192,1194.113,300.729"/>
<path id="path24" fill="#353638" d="M1555.32,169.804c8.213-0.359,16.199-3.95,24.574-0.679c2.479,0.973,3.812,2.093,3.719,4.965
	c-0.4,11.828-0.773,23.66-0.84,35.496c-0.039,6.442,0.561,12.892,0.867,19.338c0.266,5.542,0.906,11.093,0.732,16.623
	c-0.533,17.841,2.693,35.293,5.201,52.813c0.52,3.646,1.627,7.325,3.213,10.643c0.721,1.511,3.146,2.292,4.906,3.208
	c1.975,1.029,4.055,1.836,6.08,2.068c1.641,0.099,3.32,0,4.92,0.331c3.133,0.646,5.707,0.637,8.453-1.85
	c5.135-4.653,8.334-9.447,8.387-16.977c0.08-13.08,1.773-26.138,2.268-39.224c0.359-9.669-0.121-19.368-0.213-29.056
	c-0.08-7.727-0.055-15.458-0.215-23.183c-0.199-9.635-0.812-19.269-0.771-28.901c0.053-10.421,5.986-13.097,15.227-8.179
	c6.893,3.668,8.213,8.481,7.719,15.836c-0.865,13.023-0.4,26.138-0.506,39.218c-0.066,10.177-0.348,20.354-0.201,30.529
	c0.068,4.73,1.014,9.441,1.414,14.176c0.586,7.173,2.268,14.542,1.254,21.501c-1.24,8.368-4.68,16.442-7.453,24.544
	c-0.828,2.405-2.613,4.488-4.027,6.679c-5.359,8.297-12.986,12.489-22.867,12.407c-1.186-0.011-2.4-0.488-3.52-0.922
	c-2.947-1.131-5.867-2.359-9.68-3.904c0.146,2.326,0.213,3.223,0.293,4.357c-9.133,1.35-18.213,0.95-26.787-2.398
	c-3.199-1.249-5.84-4.483-8.172-7.282c-5.361-6.438-8.535-13.811-8.521-22.416c0.041-16.779-0.172-33.559-0.066-50.341
	c0.08-13.397,0.439-26.797,0.746-40.195c0.121-5.632,0.561-11.263,0.547-16.893c0-2.175-0.826-4.367-1.373-6.525
	c-0.84-3.206-1.652-6.416-2.666-9.567C1557.333,174.109,1556.386,172.284,1555.32,169.804"/>
<path id="path26" fill="#353638" d="M1327.794,300.403c-0.973,1.321-1.6,2.174-2.465,3.351c-3.688-6.6-4.191-13.28-3.537-20.069
	c0.838-8.662,1.479-17.388,3.107-25.911c1.242-6.515,1.205-12.414-2.285-18.159c-0.393-0.652-0.129-1.771-0.016-2.653
	c0.498-4.166,1.047-8.323,1.734-13.66c1.447,2.103,2.148,3.128,3.121,4.535c0.443-3.249,1.1-5.993,1.02-8.719
	c-0.031-0.811-0.137-3.872-3.109-2.733c-0.496,0.193-2.227-1.059-2.223-1.639c0.016-4.094,0.348-8.185,0.566-12.278
	c0.098-1.787,0.807-3.885,0.121-5.304c-2.006-4.137-0.588-7.369,2.346-11.78c0.572,2.935,0.941,4.833,1.311,6.733
	c0.135-0.003,0.266-0.003,0.398-0.003c0-0.88,0.023-1.757-0.008-2.633c-0.279-8.257,3.332-13.396,10.723-17.097
	c7.867-3.932,15.947-5.436,24.613-4.753c4.148,0.328,8.334,0.253,12.48,0.019c14.307-0.803,23.027,6.963,29.027,18.813
	c1.32,2.586,2.146,5.462,2.854,8.289c2.16,8.638-0.066,11.912-8.947,12.213c-3.879,0.132-7.906-0.897-11.666-2.069
	c-1.254-0.388-2.227-2.758-2.68-4.398c-2.453-9.036-8.027-13.014-17.32-12.093c-4.107,0.408-8.24,0.694-12.334,1.225
	c-7.721,1.003-9.854,4.407-10.053,12.104c-0.414,16.111-1.52,32.203-2.32,48.307c-0.094,1.669-0.574,3.539-0.014,4.989
	c2.613,6.763,2.654,13.593,2.641,20.797c-0.014,9.404,2.133,18.832,3.6,28.213c0.721,4.686,4.346,7.736,8.48,8.143
	c6.146,0.603,12.68,0.638,18.586-0.893c3.641-0.945,6.48-5.164,9.494-8.116c0.547-0.524,0.4-2.115,0.094-3.06
	c-1.041-3.223-1.961-6.562-3.613-9.473c-0.854-1.496-3.08-2.981-4.773-3.064c-3.975-0.196-6.014-1.938-6.588-5.692
	c-0.199-1.364-0.293-2.763-0.307-4.147c-0.105-8.378,2.787-11.169,11.16-10.811c5.68,0.241,11.373,0.448,17.053,0.701
	c5.881,0.264,7.375,1.494,8.107,7.271c0.76,6.119,0.92,12.044-1.32,18.196c-1.732,4.772-0.787,10.448-2.039,15.469
	c-2.906,11.558-9.906,24.302-24.881,23.906c-8.799-0.229-17.586-0.32-26.373-0.25c-7.426,0.062-13.76-3.686-16.266-12.039
	C1333.347,313.686,1330.507,307.451,1327.794,300.403"/>
<path id="path28" fill="#353638" d="M1742.093,256.25c-1-0.325-1.986-0.653-3.014-0.984c-0.721,1.213-1.387,2.33-1.506,2.54
	c-6.014-0.32-11.281-0.625-16.561-0.863c-2-0.09-4.027,0.166-6-0.06c-7.721-0.882-8.426-0.351-8.414,7.151
	c0.027,6.325,0.254,12.657,0.146,18.983c-0.238,13.996-0.586,27.996-0.986,41.988c-0.133,4.877-1.652,6.203-6.492,6.253
	c-12.574,0.124-12.906,0.136-13.293-12.131c-0.4-12.615-0.441-25.273,0.105-37.877c0.227-4.897,2.48-9.708,3.814-14.562
	c1.133-0.163,2.279-0.325,3.412-0.483c-0.426-0.972-0.854-1.945-1.412-3.212c6.906-1.96,2.133-5.973,1.893-9.936
	c-1.787,1.248-3.094,2.16-4.92,3.441c-0.787-24.325-1.533-48.046-2.307-71.851c1.973-0.648,3.76-1.235,5.627-1.851
	c2.467,3.397,8.906,20.431,9.732,28.408c-1.199,0.328-2.439,0.667-4.693,1.28c1.76,3.643,2.588,7.736,5.094,9.907
	c3.561,3.099,2.893,6.774,3.24,10.328c0.307,3.062,1.426,4.182,4.506,4.524c11.08,1.24,21.746,0.829,31.746-5.063
	c4.895-2.876,6.734-7.019,6.842-12.228c0.146-6.317,0.039-12.639,0.039-19.88c0.773,1.583,1.174,2.412,1.6,3.297
	c3.68-4.334,1.268-6.418-2.412-8.909c-4.773-3.235-8.975-7.284-13.494-10.891c-0.666-0.536-1.773-0.924-2.586-0.807
	c-5.041,0.743-7.707-1.803-9.268-6.212c-0.334-0.972-1.027-1.821-1.387-2.42c-1.826,0.908-4.467,2.691-4.812,2.317
	c-2.08-2.204-3.613-4.911-4.92-7.776c8.199,0.928,17.652-4.187,22.666,6.318c2.48-5.832,9.773-8.338,15.133-5.116
	c5.24,3.148,9.254,7.083,10.494,13.743c0.6,3.193,2.812,5.961,0.92,9.438c-0.268,0.484,0.426,2.056,1.053,2.357
	c4.293,2.085,3.24,5.752,3.041,9.243c-0.174,3.071-0.055,6.159-0.307,9.22c-0.602,7.112-0.867,14.309-2.254,21.274
	c-0.586,2.929-3.24,5.847-5.68,7.916c-3.934,3.348-3.975,3.585-0.654,7.287c4.641,5.172,8.508,10.649,8.508,18.35
	c-0.027,17.88,0.76,35.758,0.773,53.64c0.012,5.994-2.375,11.479-10.533,10.831c-3.535-0.278-5.014-1.618-4.975-5.083
	c0.107-11.72,0.387-23.447,0.094-35.157c-0.188-7.418-0.881-14.883-2.119-22.199c-0.494-2.925-3.201-5.435-4.668-8.259
	c-0.893-1.693-1.332-3.619-1.973-5.444C1741.32,256.774,1741.707,256.513,1742.093,256.25"/>
<path id="path30" fill="#353638" d="M1131.615,272.233c1.766-0.876,4.23-2.013,6.629-3.295c2.729-1.466,3.918-3.633,3.301-6.876
	c-1.947-10.234-3.273-20.608-5.76-30.703c-2.117-8.593-5.51-16.876-8.479-25.71c-7.021,5.119-5.896,12.928-6.908,19.639
	c-1.312,8.768-1.502,17.701-2.195,26.56c-0.166,2.137-0.422,4.269-0.654,6.404c-0.467,4.3,1.002,7.124,5.156,9.197
	c6.295,3.14,8.586,10.357,4.848,16.311c-1.471,2.346-5.375,3.638-8.428,4.387c-3.566,0.88-4.752,2.991-5.195,6.115
	c-0.439,3.031-0.957,6.053-1.26,9.1c-0.656,6.479-1.121,12.975-1.809,19.449c-0.332,3.121-0.055,6.658-4.115,7.959
	c-4.479,1.435-8.965,2.22-13.195-0.49c-0.852-0.543-1.537-2.088-1.498-3.147c0.375-12.104-1.871-24.54,3.375-36.09
	c3.07-6.739,3.182-13.777,3.975-20.875c1.016-9.11,2.865-18.139,4.629-27.148c0.354-1.845,1.967-3.431,2.873-5.201
	c1.619-3.206,3.438-6.352,4.635-9.717c2.248-6.319,4.637-12.673,5.904-19.221c0.559-2.914,3.926-5.936-0.611-10.023
	c-3.928-3.531-2.389-10.113-0.602-15.421c0.979-2.907,1.467-6.042,2.855-8.733c0.896-1.753,2.91-3.001,4.576-4.278
	c2.383-1.82,5.248-2.119,8.158-2.602c3.973-0.659,6.377,0.498,7.305,4.332c1.807,7.481,3.496,14.995,5.217,22.496
	c0.994,4.327,1.824,8.695,2.965,12.985c3.676,13.837,7.666,27.593,11.156,41.476c3.52,14.006,7.041,28.015,7.365,42.629
	c0.209,9.593,1.197,19.168,1.703,28.757c0.316,6.039-2.479,10.249-6.58,10.328c-6.379,0.128-9.762-3.524-9.795-10.513
	c-0.029-7.184,0.928-14.588-0.559-21.463c-0.775-3.619-5.766-6.385-8.969-9.409c-3.041-2.86-6.727-5.195-9.16-8.477
	C1131.154,279.205,1131.886,275.938,1131.615,272.233"/>
<path id="path32" fill="#353638" d="M780.441,258.584c-1.336,0.434-2.751,1.387-4.007,1.215c-5.396-0.744-9.665,1.393-10.471,6.555
	c-0.713,4.541-0.436,9.272-0.271,13.908c0.42,11.863,1.015,23.721,1.559,35.58c0.033,0.75,0.219,1.493,0.357,2.409
	c1.326-0.22,2.479-0.411,4.011-0.664c0,1.858,0,3.438,0,5.194c4.097,1.81,6.859,0.306,9.13-4.033
	c0.376,3.328,0.685,6.072,1.032,9.153c2.649-3.525,4.952-6.592,7.061-9.398c2.216-0.698,4.252-1.447,6.344-1.979
	c3.833-0.976,7.66-2.183,11.563-2.639c6.387-0.75,12.828-0.991,19.251-1.398c0.744-0.044,1.555,0.086,2.251,0.358
	c4.655,1.797,5.658,5.684,4.128,15.48c-0.686,4.365-4.185,4.109-7.143,4.076c-8.634-0.099-17.262-0.55-25.897-0.761
	c-9.106-0.223-18.384,0.647-27.263-0.86c-5.218-0.89-9.116,2.671-13.989,1.478c-4.132-1.014-7.657-4.018-7.809-8.255
	c-0.231-6.574-0.184-13.16-0.249-19.737c-0.005-0.46,0.205-0.999,0.032-1.376c-4.829-10.6,0.624-21.169,0.07-31.753
	c-0.354-6.782-0.644-13.567-0.929-20.356c-0.059-1.379-0.349-2.899,0.099-4.127c2.813-7.753,1.781-15.771,1.362-23.624
	c-0.536-10.14-2.081-20.219-3.073-30.336c-0.558-5.693-0.866-11.403-1.296-17.106c-0.237-3.147,1.066-4.316,4.337-4.313
	c3.983,0.008,7.963-0.915,11.958-1.021c6.867-0.184,9.106,2.093,7.336,8.659c-5.093,18.856-3.185,37.934-2.571,56.996
	c0.138,4.135,2.613,5.412,6.284,6.6c7.268,2.348,13.492-1.935,20.31-2.323c9.176-0.522,18.28-2.241,27.442-3.105
	c6.645-0.63,8.828,1.689,8.843,8.417c0.043,13.8,0.043,13.878-13.703,13.75c-4.439-0.042-8.872-0.909-13.312-0.904
	c-5.364,0.004-10.733,0.569-16.1,0.813c-2.239,0.105-4.49,0.019-6.731,0.019C780.405,258.976,780.423,258.779,780.441,258.584"/>
<path id="path34" fill="#353638" d="M1474.027,258.343c-0.895,0.561-1.734,1.537-2.641,1.612c-10.586,0.835-13.561,4-12.893,14.811
	c0.547,9.017,1.76,17.996,2.346,27.012c0.348,5.352,0.066,10.743,0.066,16.403c1.895-0.18,3.16-0.3,4.854-0.456
	c-0.092,1.777-0.186,3.254-0.266,4.752c4.359,1.85,6.359,1.148,9.053-3.875c0.428,3.445,0.787,6.224,1.174,9.311
	c2.721-3.654,5.039-6.752,6.973-9.34c2.361-0.76,4.24-1.468,6.174-1.96c3.986-1.016,7.947-2.293,12.014-2.779
	c6.227-0.751,12.533-1.38,18.787-1.112c2.332,0.1,6.119,2.514,6.52,4.448c0.867,4.051,0.359,8.589-0.574,12.703
	c-0.279,1.237-3.799,2.428-5.865,2.453c-8.16,0.105-16.348-0.26-24.508-0.453c-9.879-0.229-19.906,0.492-29.572-1.072
	c-5.215-0.841-9.068,2.925-13.988,1.458c-3.773-1.119-7.359-4.025-7.52-8.062c-0.254-6.57-0.199-13.157-0.279-19.732
	c0-1.076,0.307-2.304-0.094-3.202c-3.268-7.223-1.188-14.324-0.32-21.648c0.693-5.865-0.867-11.964-1.039-17.973
	c-0.121-4.78-0.494-9.801,0.719-14.321c2.801-10.527,1.453-20.95,0.693-31.455c-0.68-9.484-1.133-18.98-1.879-28.456
	c-0.334-4.052-1.268-8.051-1.76-12.092c-0.361-2.96,1.092-4.004,4.092-4.029c4.762-0.039,9.535-0.981,14.268-0.781
	c5.146,0.223,6.08,1.764,5.494,6.856c-0.174,1.528-0.48,3.051-0.854,4.54c-4.668,18.108-2.533,36.453-1.801,54.729
	c0.08,1.729,2.041,4.681,3.359,4.82c3.908,0.415,7.295,3.77,12.08,0.841c3.521-2.153,8.627-1.787,13.055-2.352
	c7.906-1.012,15.854-1.897,23.773-2.797c7.906-0.896,10.426,1.316,10.439,9.084c0.014,13.069,0.014,13.167-13.053,13.02
	c-5.668-0.064-11.334-0.858-17.014-0.904c-4.441-0.039-8.881,0.621-13.32,0.877c-2.08,0.12-4.174,0.024-6.268,0.024
	C1474.306,258.941,1474.16,258.644,1474.027,258.343"/>
<path id="path36" fill="#353638" d="M892.358,170.585c0.842,2.106,1.659,4.145,2.474,6.181c0.182-0.249,0.361-0.501,0.545-0.754
	c0.126-2.268-0.599-5.831,0.529-6.569c3.649-2.387,7.563-0.863,10.271,0.603c-1.447,2.684-2.757,5.112-4.067,7.539
	c2.952,0.182,5.901,0.367,9.631,0.596c-0.999-2.521-1.474-3.72-1.941-4.896c7.068-3.445,15.568-1.388,21.407,3.135
	c8.588,6.646,10.079,15.264,9.446,25.099c-0.211,3.34-1.507,5.288-4.861,5.529c-2.296,0.165-4.613,0.188-6.913,0.072
	c-3.847-0.203-5.727-2.187-5.935-6.189c-0.546-10.569-5.236-14.305-15.576-15.56c-4.944-0.6-9.598,0.813-14.467,0.03
	c-4.311-0.698-10.353,5.477-10.495,10.539c-0.489,16.862-2.029,33.685-0.545,50.619c0.758,8.665-0.511,17.489-0.457,26.239
	c0.06,9.767,0.505,19.533,0.929,29.288c0.195,4.498,7.67,12.102,12.043,11.528c6.623-0.863,13.242-2.304,19.621-4.283
	c4.266-1.324,5.347-5.538,5.752-9.759c0.761-7.973,6.71-13.028,14.225-12.646c3.811,0.188,5.706,2.269,6.38,5.521
	c2.516,12.207-2.791,29.324-15.937,34.507c-11.38,4.484-22.876,8.451-35.566,5.374c-7.96-1.929-19.475-12.831-20.818-21.116
	c-2.296-14.155-3.983-28.244-1.71-42.741c1.059-6.746-1.153-13.948-1.407-20.96c-0.221-5.989,0.259-12.005,0.393-18.009
	c0.297-13.025,0.571-26.044,0.846-39.064c0.015-0.761-0.264-1.59-0.051-2.273C868.948,179.217,883.424,169.602,892.358,170.585"/>
<path id="path38" fill="#353638" d="M615.264,311.845c7.929-0.809,15.867-1.533,23.781-2.453c5.281-0.619,8.671,1.931,8.828,7.155
	c0.102,3.377,0.174,6.789-0.184,10.141c-0.375,3.506-2.492,5.508-6.243,5.445c-10.788-0.177-21.575-0.323-32.363-0.479
	c-8.927-0.127-17.85-0.297-26.775-0.361c-4.224-0.031-6.822-2.1-7.381-6.148c-0.755-5.454-1.283-10.954-1.564-16.453
	c-0.634-12.442-1.009-24.898-1.58-37.341c-0.733-16.129-2.626-32.297-1.997-48.367c0.475-12.062,1.157-24.015,0.008-36.056
	c-0.418-4.368-0.41-8.786-0.418-13.18c0-0.973,0.621-2.712,1.176-2.801c5.609-0.947,11.253-1.791,16.917-2.164
	c0.687-0.045,2.216,2.808,2.255,4.351c0.439,16.307,0.629,32.62,0.952,48.935c0.129,6.307,0.661,12.613,0.6,18.916
	c-0.136,14.95-0.527,29.9-0.792,44.85c-0.097,5.628-0.398,11.271-0.107,16.884c0.277,5.337,3.765,8.327,9.085,8.405
	c5.243,0.079,10.484,0.018,15.728,0.018C615.215,311.375,615.237,311.609,615.264,311.845"/>
<path id="path40" fill="#353638" d="M1033.806,243.095c0-0.807,0-2.084,0-2.876c-2.564,0.938-4.779,1.745-7.934,2.895
	c1.879-6.771-3.783-5.168-6.029-7.215c4.719-2.975,9.332-4.444,14.604-1.198c0-4.332,0.09-8.485-0.018-12.632
	c-0.42-15.964-1.018-31.924-1.213-47.892c-0.016-1.537,2.066-4.143,3.559-4.465c5.232-1.139,10.615-1.73,15.975-2.044
	c2.775-0.161,5.08,5.469,4.834,9.251c-0.553,8.386-0.898,16.797-0.959,25.203c-0.076,10.92,0.203,21.844,0.348,32.769
	c0.045,3.848,0.084,7.7,0.219,11.545c0.346,9.845,0.93,19.688,1.072,29.538c0.18,13.23,0.119,26.469-0.01,39.704
	c-0.039,3.988-0.303,8.036-1.123,11.915c-0.316,1.5-2.338,3.509-3.799,3.716c-3.574,0.506-7.275,0.088-10.916,0.047
	c-4.676-0.061-7.9-3.092-7.85-7.836c0.135-12.176,0.686-24.356,0.588-36.527c-0.074-9.025-0.973-18.038-1.357-27.062
	c-0.059-1.412,0.777-2.841,1.018-4.29c0.549-3.347,1.131-6.701,1.381-10.076c0.045-0.667-1.35-1.438-2.391-2.468"/>
<path id="path42" fill="#353638" d="M994.835,250.334c0.582-0.53,1.152-1.065,1.916-1.762c0.865,16.227,1.818,32.048,2.518,47.882
	c0.377,8.475,0.416,16.963,0.461,25.446c0.035,7.885-2.789,10.61-10.594,10.568c-11.18-0.055-12.664-1.866-13.971-13.201
	c-2.096-18.312-2.344-36.593-0.934-54.955c0.588-7.699,2.705-14.642,7.418-20.895c1.018-1.346,1.004-4.114,0.438-5.899
	c-3.791-11.927-7.744-23.727-7.049-36.58c0.322-5.969-0.686-12.001-0.738-18.009c-0.029-3.047,0.475-6.153,1.17-9.131
	c1.055-4.475,4-6.517,8.428-6.212c3.361,0.233,6.717,0.796,10.072,0.836c2.961,0.035,4.34,1.328,4.281,4.14
	c-0.166,8.854-0.332,17.712-0.656,26.563c-0.361,9.692-1.055,19.375-1.281,29.068c-0.121,5.14,1.1,5.895,6.398,5.292
	c0.613-0.068,1.27-0.264,1.842-0.129c2.074,0.495,4.123,1.105,6.189,1.67c-0.828,2.956-1.004,6.397-2.715,8.682
	c-1.041,1.383-4.453,1.055-6.816,1.353c-1.982,0.251-4.234-0.201-5.885,0.618c-0.98,0.486-1.033,2.838-1.51,4.351
	C994.156,250.132,994.496,250.233,994.835,250.334"/>
<path id="path44" fill="#353638" d="M1416.933,420.579c-0.16,2.718-0.48,5.443-0.453,8.162c0.119,14.477,0.293,28.948,0.52,43.424
	c0.055,3.836-2.6,4.493-5.453,4.93c-4.32,0.649-7.547-1.703-7.307-5.533c0.359-5.602-2.16-9.183-6.094-12.632
	c2.135-0.267,3.867-0.483,5.48-0.688c-0.439-5.209-0.826-9.907-1.119-13.336c1-4.614,2.572-8.234,2.373-11.754
	c-0.387-6.733,0.945-13.608-2.227-20.266c-1.174-2.479-0.602-6.657,0.732-9.31c2.773-5.609,3.254-10.768-0.801-16.647
	c2.588-1.196,4.627-2.269,6.762-3.105c3.133-1.222,5.492-0.271,6.613,2.973c2.559,7.546,4.906,15.159,7.572,22.667
	c1.439,4.018,3.428,7.835,5,11.806c1.041,2.64,1.773,5.399,2.641,8.059c6.719,3.001,3.639,11.969,9.945,16.528
	c0-3.817-0.012-7.08,0-10.339c0.041-10.434,0.08-20.86,0.107-31.284c0.027-5.646-0.027-11.286,0.041-16.934
	c0.053-4.96,3.771-5.005,7.227-4.997c3.318,0.006,4.945,1.763,4.893,5.275c-0.146,8.604-0.199,17.221-0.133,25.82
	c0.133,15.84,0.453,31.674,0.559,47.506c0.027,3.526-0.559,7.057-0.693,10.585c-0.119,2.772-0.879,4.976-4.066,5.134
	c-3.025,0.157-6.479,0.834-7.879-3.025c-1.281-3.597-1.947-7.409-3.334-10.952c-2.746-6.989-5.84-13.836-8.707-20.77
	c-2.279-5.505-4.346-11.099-6.732-16.551c-0.867-1.989-2.414-3.691-3.654-5.523C1418.146,420.064,1417.533,420.32,1416.933,420.579"
	/>
<path id="path46" fill="#353638" d="M1193.361,472.084c1.875-0.384,3.037-0.618,3.344-0.68c1.377-5.391,2.602-10.192,3.818-15.003
	c1.311-5.208,0.773-9.896-2.902-14.256c-4.17-4.944-7.932-10.237-11.77-15.453c-2.209-3.024-1.379-4.368,2.436-5.059
	c8.299-1.495,12.477-13.097,8.119-20.334c-4.229-7.019-9.711-11.519-18.041-12.146c-5.77,5.722-2.934,13.214-3.896,19.927
	c-0.326,2.225,0.324,4.582,0.449,6.89c0.139,2.518-0.631,5.255,3.318,6.084c0.521,0.106,1.125,6.183-0.277,7.804
	c-2.648,3.067-2.309,5.919-2.225,9.346c0.105,4.676-0.891,9.373-0.836,14.047c0.051,5.117,0.676,10.239,1.273,15.328
	c0.09,0.753,1.635,1.235,2.088,2.07c0.861,1.585,1.416,3.341,2.102,5.022c-1.303,0.422-2.584,0.927-3.912,1.229
	c-0.723,0.164-1.531-0.031-2.299-0.038c-11.279-0.136-9.854,1.313-10.23-10.352c-0.512-16.154-0.543-32.332-0.693-48.497
	c-0.084-9.175-0.09-18.357,0.07-27.532c0.125-7.872,0.428-8.159,8.092-8.021c7.496,0.135,15.006,0.376,22.49,0.866
	c5.775,0.385,10.021,4.146,12.238,8.83c4.809,10.151,6.096,20.784-0.604,30.84c-2.715,4.063-2.309,7.169-0.469,11.799
	c3.975,10.021,9.514,20.325,3.523,31.665c-2.467,4.665-8.844,8.263-13.738,7.441
	C1194.414,473.831,1194.121,473.054,1193.361,472.084"/>
<path id="path48" fill="#353638" d="M1346.466,382.43c1.693,0,3.414,0.173,5.08-0.028c10.627-1.319,16.586,8.171,18.094,15.612
	c0.586,2.916,0.467,5.45-3.293,6.385c-3.748,0.926-8.721-0.227-9.934-2.701c-3.613-7.408-6.027-8.683-14.041-7.326
	c-1.52,0.257-3.398,0.136-4.453,1.002c-1.693,1.38-3.893,3.357-4.053,5.226c-0.801,9.799-1.457,19.653-1.33,29.486
	c0.113,8.849,0.877,17.752,2.17,26.513c1.254,8.541,8.293,12.13,16.213,8.527c2.348-1.071,5.359-3.951,5.4-6.048
	c0.053-2.789-0.453-6.819-4.934-7.839c-4.279-0.973-3.066-4.725-3.08-7.669c-0.027-3.037,2.146-3.941,4.654-3.949
	c4-0.015,8.053-0.104,11.973,0.528c1.4,0.218,3.4,2.344,3.547,3.771c0.986,9.406-0.508,18.566-4.787,27.017
	c-1.973,3.908-5.732,5.974-10.293,6.013c-4.934,0.042-9.881,0.143-14.814,0c-7.264-0.222-9.781-2.649-12.457-11.281
	c-0.717-2.315,0.203-5.714-3.996-6.062c-0.596-0.051-1.395-3.029-1.334-4.63c0.213-5.837,0.926-11.646,1.084-17.483
	c0.121-4.354-0.188-8.736-0.541-13.086c-0.271-3.37-1.205-6.68,2.172-9.326c0.602-0.476,0.127-2.697-0.264-3.986
	c-0.574-1.939-2.195-3.755-2.203-5.631c-0.1-16.469,7.674-24.768,23.566-23.057c0.6,0.061,1.227,0.01,1.854,0.01
	C1346.466,382.416,1346.466,382.422,1346.466,382.43"/>
<path id="path50" fill="#353638" d="M986.8,401.194c-1.613-2.283-2.73-4.659-4.555-6.22c-1.885-1.613-4.486-2.389-6.717-3.627
	c-3.152-1.746-6.475-3.286-9.295-5.472c-3.65-2.819-6.719-3.106-10.299,0.091c-0.316-0.938-0.596-1.771-1.125-3.332
	c7.828,0.829,15.561-3.628,22.828,2.207c7.609-3.218,12.281-1.319,14.672,7.102c1.525,5.385,2.291,11.067,2.699,16.669
	c0.281,3.942-0.111,8.099-1.148,11.905c-0.736,2.765-3.014,5.118-4.936,8.171c7.576,6.363,6.295,15.582,6.338,24.472
	c0.033,5.866,0.207,11.737-0.043,17.589c-0.076,1.823-0.867,4.147-2.17,5.229c-1.125,0.952-3.605,0.959-5.174,0.447
	c-0.85-0.279-1.461-2.518-1.49-3.882c-0.152-7.715,0.314-15.454-0.266-23.129c-0.309-4.094-2.27-8.067-3.537-12.08
	c-0.398-1.251-0.979-2.443-1.361-3.382c-4.512,0-9.02,0.028-13.527-0.008c-5.781-0.054-5.715-0.078-5.789,5.911
	c-0.145,10.778-0.506,21.559-0.512,32.338c-0.008,4.7-2.828,4.525-6.131,4.562c-3.361,0.04-5.219-0.812-5.133-4.65
	c0.166-7.862-0.182-15.733,0.129-23.581c0.119-2.985,1.5-5.911,2.262-8.874c0.248-0.979,0.352-1.998,0.543-3.082
	c0.443-0.078,1.416-0.265,2.697-0.498c-0.414-1.035-0.578-2.249-0.986-2.33c-5.542-1.207-2.852-5.354-3.016-8.376
	c-0.559-9.681-1.004-19.36-1.441-29.04c-0.113-2.299-0.746-5.033,3.934-4.695c1.23,3.495,2.836,7.461,3.953,11.562
	c0.443,1.637-0.74,3.726-0.25,5.324c1.402,4.591,2.232,10.014,5.254,13.276c3.221,3.467,17.59,0.082,20.674-3.935
	c1.131-1.456,1.545-3.635,1.811-5.55C986.271,408.15,986.544,403.961,986.8,401.194"/>
<path id="path52" fill="#353638" d="M1520.466,431.064c0-7.095-0.16-14.189,0.053-21.275c0.174-5.384-3.332-8.972-5.492-13.282
	c-0.986-1.964-0.439-4.685-0.588-7.059c1.707,0.376,3.455,0.64,5.121,1.146c9.373,2.85,10.188,10.653,10.146,18.491
	c-0.053,14.794-0.4,29.594-0.961,44.379c-0.172,4.551-0.893,9.255-2.359,13.552c-2.227,6.462-8.133,9.44-14.213,10.404
	c-16.121,2.55-27.854-11.972-26.373-26.039c1.24-11.699,1.066-23.634,0.48-35.41c-0.547-10.848,2.986-19.187,11.492-25.693
	c1.68-1.283,3.066-2.955,4.574-4.447c2.066-2.034,4.586-2.836,7.025-1.205c1.227,0.813,2.135,2.638,2.453,4.16
	c0.602,2.924,0.762,6.62-2.986,7.192c-12.16,1.861-12.68,11.399-13.133,20.204c-0.561,10.893,0.174,21.854,0.346,32.789
	c0.027,1.688,0.188,3.391,0,5.056c-0.68,6.267,4.895,12.492,11.201,12.416c8.506-0.104,13.48-5.109,13.52-13.658
	c0.041-7.237,0.014-14.482,0.014-21.729C1520.679,431.056,1520.574,431.064,1520.466,431.064"/>
<path id="path54" fill="#353638" d="M827.485,403.993c-4.824,3.519-4.244,7.682-4.771,11.223c-0.74,5-0.744,10.095-1.351,15.117
	c-0.467,3.867-0.551,7.069,3.536,9.509c1.574,0.938,2.549,4.168,2.42,6.271c-0.088,1.482-2.237,3.511-3.897,4.092
	c-2.917,1.028-4.176,2.494-4.388,5.596c-0.353,5.201-1.179,10.367-1.75,15.551c-0.464,4.237-3.556,4.547-6.771,4.562
	c-3.306,0.009-3.985-2.087-3.998-4.944c-0.017-7.569,0.152-14.921,3.01-22.271c1.887-4.862,1.238-10.652,2.385-15.885
	c0.89-4.078,2.91-7.896,4.222-11.896c1.997-6.092,3.872-12.229,5.638-18.396c0.173-0.604-0.796-1.522-1.196-2.316
	c-2.975-5.924,0.755-16.178,6.358-17.768c3.807-1.078,6.23-0.263,7.137,3.967c1.646,7.673,3.414,15.325,5.268,22.956
	c2.658,10.917,6.021,21.704,7.985,32.749c1.636,9.188,1.729,18.656,2.42,28.015c0.222,2.979-1.255,4.635-4.357,4.696
	c-3.062,0.06-5.19-1.124-5.365-4.395c-0.184-3.536-0.304-7.104-0.066-10.63c0.271-3.996-1.998-5.979-4.856-8.15
	c-2.249-1.72-4.041-4.229-5.527-6.694c-1.331-2.2-0.232-3.794,2.115-5.057c1.273-0.69,2.795-2.868,2.565-4.06
	C832.27,425.47,829.917,415.172,827.485,403.993"/>
<path id="path56" fill="#353638" d="M1266.39,442.22c7.047-1.069,5.486-6.037,4.463-10.636c-1.969-8.806-4.078-17.581-6.287-27.043
	c-4.598,3.128-4.004,7.275-4.547,10.729c-0.852,5.443-0.941,11-1.516,16.494c-0.367,3.553-0.174,6.324,3.527,8.572
	c4.713,2.858,3.959,8.882-1.107,10.624c-3.273,1.13-4.568,2.901-4.727,6.339c-0.227,4.727-1.215,9.408-1.576,14.137
	c-0.307,4.032-2.615,5.155-6.166,5.231c-3.732,0.084-4.713-1.894-4.691-5.252c0.041-7.405,0.219-14.584,2.971-21.796
	c1.969-5.159,1.32-11.251,2.467-16.801c0.785-3.783,2.76-7.311,3.988-11.02c2.012-6.068,3.928-12.178,5.693-18.32
	c0.217-0.777-0.719-1.894-1.139-2.836c-2.543-5.689,0.375-14.947,5.395-17.09c4.539-1.945,6.953-0.918,8.174,3.92
	c1.922,7.614,3.545,15.297,5.398,22.925c2.654,10.925,5.986,21.716,7.947,32.757c1.605,9.04,1.664,18.359,2.346,27.563
	c0.215,2.925-1.156,4.827-4.207,4.918c-3.184,0.097-5.445-1.245-5.551-4.774c-0.111-3.543,0.412-7.184-0.256-10.6
	c-0.506-2.587-1.85-5.918-3.877-7.109C1269,450.732,1266.457,447.919,1266.39,442.22"/>
<path id="path58" fill="#353638" d="M739.394,472.183c1.555-0.657,2.909-1.223,4.436-1.864c0.225,0.733,0.442,1.439,0.743,2.429
	c0.588-0.462,1.304-0.761,1.576-1.29c0.378-0.729,0.422-1.637,0.783-3.227c6.251-0.775,13.518-1.628,20.767-2.622
	c3.43-0.47,5.346,0.601,5.559,4.265c0.323,5.477-0.479,6.839-4.83,6.794c-10.591-0.112-21.175-0.385-31.763-0.595
	c-0.299-0.007-0.599-0.167-0.897-0.151c-9.416,0.438-10.472-1.019-10.237-11.157c0.27-11.604,0.06-23.223-0.084-34.832
	c-0.146-11.61-0.464-23.22-0.712-34.828c-0.025-1.062-0.239-2.143-0.167-3.197c0.152-2.268,0.073-6.379,0.714-6.498
	c3.668-0.717,7.526-0.611,11.292-0.379c0.405,0.025,0.975,2.679,0.909,4.09c-0.451,9.979-1.187,19.947-1.546,29.917
	c-0.19,5.424,2.896,7.172,8.465,6.2c7.267-1.273,14.621-2.179,21.975-2.806c4.741-0.406,5.304,0.813,5.57,6.74
	c0.188,4.078-1.09,5.971-5.463,5.91c-8.096-0.111-16.194,0.123-24.293,0.311c-6.046,0.137-8.321,2.775-7.873,8.918
	c0.522,7.179,0.855,14.377,1.736,21.507C736.317,467.952,738.143,469.891,739.394,472.183"/>
<path id="path60" fill="#353638" d="M1044.195,472.158c1.611-0.665,2.947-1.213,4.328-1.785c0.299,0.791,0.562,1.491,0.879,2.336
	c0.725-0.526,1.609-0.898,2.021-1.56c0.301-0.482-0.021-1.358-0.113-2.812c6.771-0.867,14.264-1.841,21.76-2.792
	c3.354-0.429,5.043,1.193,4.912,4.456c-0.113,3.032,0.891,6.883-4.439,6.726c-10.736-0.324-21.479-0.476-32.213-0.7
	c-0.15-0.008-0.316-0.137-0.445-0.091c-2.934,0.921-6.551,2.473-8.348-0.716c-1.627-2.872-2.041-6.694-2.125-10.126
	c-0.287-11.911-0.145-23.831-0.264-35.74c-0.113-11.612-0.346-23.22-0.543-34.83c-0.008-0.764-0.203-1.531-0.182-2.294
	c0.062-2.321-0.232-6.526,0.35-6.655c3.656-0.801,7.516-0.844,11.301-0.702c0.475,0.017,1.287,2.571,1.227,3.913
	c-0.443,9.981-1.221,19.941-1.582,29.922c-0.211,5.769,2.818,7.531,8.58,6.483c7.107-1.286,14.314-2.133,21.523-2.76
	c4.984-0.43,5.594,0.723,5.902,6.411c0.227,4.174-0.873,6.337-5.586,6.246c-8.098-0.15-16.193,0.136-24.291,0.304
	c-5.928,0.126-8.219,2.887-7.742,9.047c0.551,7.168,0.867,14.367,1.727,21.51C1041.074,467.952,1042.853,469.77,1044.195,472.158"/>
<path id="path62" fill="#353638" d="M1658.466,472.234c1.588-0.741,2.814-1.313,4.174-1.946c0.346,0.808,0.68,1.613,1.293,3.069
	c0.812-1.643,1.4-2.806,2.6-5.194c5.693-0.717,13.08-1.622,20.453-2.594c3.588-0.476,5.307,1.116,5.215,4.623
	c-0.094,3.143,0.586,6.745-4.654,6.549c-10.732-0.399-21.467-0.533-32.199-0.782c-0.146,0-0.32-0.084-0.453-0.031
	c-2.961,1.167-6.561,2.359-8.295-0.844c-1.559-2.91-1.879-6.733-1.959-10.169c-0.281-11.763-0.133-23.528-0.268-35.292
	c-0.119-11.609-0.4-23.218-0.613-34.83c-0.014-0.761-0.119-1.529-0.08-2.293c0.107-2.441-0.266-6.797,0.467-7.002
	c3.467-0.934,7.24-0.92,10.867-0.725c0.574,0.039,1.506,2.76,1.439,4.199c-0.4,9.974-1.172,19.943-1.547,29.922
	c-0.186,5.466,2.867,7.344,8.334,6.387c7.107-1.244,14.307-2.182,21.506-2.828c5.188-0.473,6,0.622,6.107,6.113
	c0.121,5.731-0.453,6.371-5.707,6.449c-7.945,0.104-15.92,0.624-23.826,0.193c-6.854-0.376-7.92,3.034-7.92,8.95
	c0,7.329,0.76,14.685,1.627,21.976C1655.267,468.127,1657.107,469.919,1658.466,472.234"/>
<path id="path64" fill="#353638" d="M1574.306,420.592c0,11.542,0.16,23.084-0.053,34.628c-0.133,7.493,1.732,9.82,9.24,9.671
	c6.453-0.127,12.879-0.551,19.332-0.828c2.908-0.129,4.895,0.941,4.801,4.161c-0.094,3.115,1.867,8.006-3.066,8.247
	c-11.533,0.566-23.107,0.303-34.641-0.03c-3.934-0.122-4.453-3.77-4.627-6.934c-0.613-11.22-1.373-22.445-1.652-33.672
	c-0.307-11.971-0.041-23.949-0.201-35.922c-0.053-4.297-0.812-8.587-0.893-12.884c-0.08-4.283,2.014-5.557,8-5.843
	c3.986-0.188,4.094,2.485,4.107,5.186c0.039,11.408,0.012,22.813,0.012,34.22C1574.56,420.592,1574.427,420.592,1574.306,420.592"/>
<path id="path66" fill="#353638" d="M598.173,411.024c-0.414,7.388-1.201,14.777-1.151,22.168
	c0.059,9.676,0.929,19.341,1.136,29.021c0.076,3.431-0.362,6.998-1.311,10.286c-1.094,3.774-4.555,3.073-7.392,2.511
	c-2.812-0.558-4.346-2.05-4.149-5.498c0.786-13.851,1.396-27.706,1.747-41.569c0.259-10.14,0.067-20.296-0.03-30.442
	c-0.037-3.844-0.505-7.012-6.099-5.684c-2.617,0.617-5.778-0.596-8.574-1.389c-1.104-0.316-2.583-1.709-2.637-2.683
	c-0.066-1.252,0.811-3.234,1.845-3.733c3.855-1.846,7.794-3.67,12.345-1.529c1.503,0.707,3.543,0.339,5.338,0.363
	c2.756,0.029,5.513,0.014,8.269-0.054c4.372-0.104,8.744-0.347,13.118-0.386c1.509-0.013,4.185,0.084,4.337,0.656
	c0.665,2.533,1.067,5.344,0.578,7.863c-0.19,0.994-2.905,1.961-4.549,2.11c-2.229,0.212-4.525-0.54-6.804-0.579
	c-5.212-0.09-6.495,1.214-6.583,6.521c-0.062,4.011-0.01,8.015-0.01,12.026C597.789,411.01,597.981,411.02,598.173,411.024"/>
<path id="path68" fill="#353638" d="M906.658,411.033c-0.411,7.387-1.201,14.774-1.151,22.161c0.062,9.683,0.854,19.35,1.175,29.027
	c0.099,2.865-0.044,5.798-0.582,8.603c-0.888,4.622-4.319,5.065-8.177,4.229c-3.842-0.838-4.19-3.31-3.971-6.927
	c0.808-13.232,1.304-26.479,1.606-39.729c0.233-10.292,0.054-20.599-0.049-30.907c-0.036-3.85-0.531-6.994-6.105-5.674
	c-2.622,0.617-5.78-0.596-8.576-1.389c-1.102-0.316-2.577-1.72-2.627-2.691c-0.069-1.251,0.813-3.226,1.851-3.725
	c3.854-1.854,7.794-3.67,12.346-1.521c1.5,0.709,3.538,0.323,5.337,0.346c2.755,0.039,5.515,0.01,8.271-0.037
	c4.227-0.066,8.458-0.263,12.683-0.217c1.746,0.013,4.731,0.111,4.991,0.896c0.774,2.307,1.109,5.209,0.318,7.402
	c-0.428,1.185-3.483,1.773-5.423,1.96c-2.238,0.221-4.545-0.361-6.829-0.468c-3.6-0.163-5.52,1.599-5.552,5.226
	c-0.039,4.472-0.008,8.941-0.008,13.412C906.344,411.02,906.503,411.024,906.658,411.033"/>
<path id="path70" fill="#353638" d="M1747.814,411.146c-0.414,7.389-1.201,14.785-1.16,22.163c0.066,9.68,0.893,19.354,1.213,29.026
	c0.094,2.864-0.121,5.791-0.654,8.592c-0.812,4.396-4.094,4.887-7.787,4.203c-4.092-0.755-4.545-3.283-4.307-7.117
	c0.828-13.223,1.295-26.478,1.602-39.731c0.24-10.141,0.08-20.297-0.027-30.443c-0.039-3.921-0.307-7.45-6.24-6.022
	c-2.613,0.627-5.787-0.604-8.572-1.419c-1.08-0.313-2.521-1.795-2.533-2.766c-0.027-1.26,0.906-3.188,1.959-3.68
	c3.867-1.802,7.826-3.663,12.348-1.408c1.359,0.679,3.252,0.37,4.906,0.384c2.906,0.021,5.812-0.039,8.719-0.098
	c4.227-0.098,8.455-0.294,12.668-0.303c1.652-0.008,4.547,0.038,4.719,0.643c0.682,2.51,1.055,5.383,0.441,7.84
	c-0.268,1.039-3.24,1.787-5.041,1.943c-2.24,0.204-4.547-0.391-6.812-0.564c-4.146-0.324-5.975,1.795-5.947,5.789
	c0.014,4.312,0,8.633,0,12.946C1747.48,411.131,1747.654,411.139,1747.814,411.146"/>
<path id="path72" fill="#353638" d="M667.676,420.796c3.533-0.701,6.007-1.191,8.254-1.636c0-10.344-0.007-20.945,0.005-31.543
	c0.004-4.689,1.089-5.301,9.26-5.625c3.736-0.143,4.394,2.442,4.426,5.148c0.307,23.056,0.562,46.108,0.693,69.165
	c0.03,5.357-0.686,10.72-0.671,16.07c0.012,5.609-4.153,3.696-6.92,4.103c-3.014,0.452-5.737-0.211-6.058-3.92
	c-0.333-3.831-0.468-7.676-0.512-11.521c-0.084-7.362-0.142-14.745-0.004-22.109c0.045-2.557,0.581-5.121,1.106-7.632
	c0.733-3.475,0.212-5.781-3.912-6.544C671.72,424.46,670.356,422.734,667.676,420.796"/>
<path id="path74" fill="#353638" d="M641.274,452.098c0.82-9.915-0.724-18.817,5.05-26.372c0.592-0.776,0.105-2.683-0.343-3.898
	c-3.807-10.312-3.755-21.138-4.004-31.85c-0.161-7.236,6.328-10.817,12.354-7.112c1.175,0.726,1.82,3.207,1.777,4.855
	c-0.176,7.072-0.716,14.138-1.096,21.207c-0.133,2.46-0.236,4.926-0.263,7.39c-0.028,2.572,0.782,4.094,3.887,3.49
	c2.091-0.396,5.128-0.475,4.3,2.752c-0.456,1.779-3.28,4.312-4.823,4.177c-3.457-0.317-3.447-0.284-3.168,3.429
	c1.015,13.626,1.145,27.312,1.523,40.984c0.082,3.066-0.905,5.344-4.653,5.577c-6.788,0.438-8.427-0.149-8.955-4.847
	C642.065,464.844,641.709,457.76,641.274,452.098"/>
<path id="path76" fill="#353638" d="M806.627,171.611c-1.499,0.331-2.991,0.664-4.484,0.999c-0.179-0.299-0.361-0.595-0.539-0.889
	c0.718-0.479,1.381-1.226,2.164-1.388c4.32-0.889,8.667-1.659,13.009-2.427c5.99-1.06,10.812-0.375,10.08,6.976
	c-0.299,3.001,0.433,6.111,0.788,9.164c0.468,4.027-1.538,5.748-5.309,5.669c-7.198-0.159-14.436-0.076-21.583-0.81
	c-3.143-0.325-6.318-2.097-9.006-3.913c-0.717-0.483-0.279-3.989,0.694-5.341c1.511-2.107,3.776-3.815,6.03-5.184
	c1.094-0.663,2.903-0.049,4.359-0.241c1.438-0.196,2.841-0.679,4.261-1.036C806.936,172.663,806.78,172.137,806.627,171.611"/>
<path id="path78" fill="#353638" d="M1500.56,171.689c-1.574,0.285-3.146,0.568-4.721,0.852c-0.133-0.377-0.279-0.759-0.426-1.139
	c0.84-0.371,1.639-0.903,2.533-1.074c4.027-0.802,8.119-1.305,12.105-2.285c7.441-1.832,9.842-0.328,10.588,7.14
	c0.32,3.208,0.547,6.427,0.854,9.633c0.307,3.123-1.293,4.799-4.227,4.777c-7.654-0.065-15.348-0.045-22.961-0.732
	c-2.986-0.268-6.08-1.964-8.561-3.78c-0.746-0.546-0.158-4.083,0.842-5.56c1.359-2.021,3.559-3.623,5.693-4.924
	c1.092-0.667,2.84-0.213,4.279-0.413c1.492-0.208,2.973-0.592,4.467-0.901C1500.88,172.752,1500.72,172.221,1500.56,171.689"/>
<path id="path80" fill="#353638" d="M798.438,135.792c1.004,6.416,0.992,11.724-4.258,16.28c-4.023,3.492-6.88,8.293-10.698,12.068
	c-1.807,1.789-4.581,3.391-7.025,3.568c-4.586,0.332-7.922-6.294-6.409-11.801c2.19-7.984,14.565-18.146,23.002-18.976
	C794.676,136.77,796.271,136.26,798.438,135.792"/>
<path id="path82" fill="#353638" d="M711.452,151.481c0.456,5.187,1.577,10.294-3.552,14.803
	c-4.228,3.716-7.272,8.745-11.303,12.725c-1.891,1.867-4.828,3.588-7.365,3.703c-5.222,0.236-8.6-8.004-5.477-13.568
	c1.922-3.418,4.716-6.394,7.353-9.359C696.256,153.984,702.777,151.032,711.452,151.481"/>
<path id="path84" fill="#353638" d="M827.08,363.599c7.395,0.651,16.19,7.212,17.691,13.862c0.213,0.944-1.126,3.002-2.125,3.311
	c-3.441,1.054-6.988,1.424-9.525-2.172c-0.793-1.125-1.771-2.127-2.709-3.137c-3.216-3.475-5.387-1.146-7.438,1.409
	c-1.912,2.378-3.474,4.849-7.321,4.487c-3.354-0.316-4.354-2.254-3.175-4.539c2.237-4.326,4.883-8.558,8.062-12.213
	C821.648,363.34,824.84,363.885,827.08,363.599"/>
<path id="path86" fill="#353638" d="M761.654,395.818c-3.621-0.996-7.289-1.848-10.821-3.089c-0.693-0.251-1.481-2.671-1.161-2.979
	c4.758-4.592,10.479-7.223,17.156-7.088c1.048,0.025,2.352,1.623,2.996,2.785c0.54,0.984,0.303,2.403,0.394,3.633
	c0.409,5.676,0.03,6.092-5.607,6.092c-0.922,0-1.847,0-2.769,0C761.78,395.389,761.718,395.602,761.654,395.818"/>
<path id="path88" fill="#353638" d="M1066.425,395.818c-3.619-0.996-7.291-1.848-10.818-3.089c-0.686-0.243-1.461-2.671-1.139-2.979
	c4.758-4.576,10.471-7.238,17.154-7.079c1.039,0.022,2.342,1.621,2.982,2.79c0.545,0.979,0.303,2.398,0.395,3.623
	c0.406,5.672,0.029,6.088-5.619,6.088c-0.92,0-1.846,0-2.766,0C1066.552,395.389,1066.494,395.602,1066.425,395.818"/>
<path id="path90" fill="#353638" d="M1680.386,395.803c-3.467-0.971-6.959-1.868-10.4-2.948c-2.732-0.858-2.398-2.021-0.492-3.86
	c3.906-3.769,8.68-5.396,13.799-6.353c3.48-0.649,5.787,0.347,5.773,4.378c0,0.92,0.041,1.857,0.215,2.762
	c0.732,4.07-0.961,5.781-5.027,5.414c-1.213-0.115-2.453-0.023-3.68-0.023C1680.507,395.381,1680.439,395.591,1680.386,395.803"/>
<path id="path92" fill="#353638" d="M755.322,364.99c-1.479,3.236-2.381,5.949-3.883,8.272c-1.562,2.428-3.684,4.493-5.613,6.673
	c-1.809,2.042-4.413,4.298-6.517,1.852c-1.443-1.664-1.872-5.682-0.863-7.703C740.896,369.161,746.066,364.103,755.322,364.99"/>
<path id="path94" fill="#353638" d="M1481.093,185.792c-0.146-1.392-0.307-2.784-0.533-4.675c-0.627,2.095-0.693,4.229-1.801,5.277
	c-0.746,0.712-2.945-0.103-5.627-0.333c5.613-4.976-0.865-11.465,4.174-15.613C1481.919,174.757,1484.201,179.549,1481.093,185.792"
	/>
<path id="path96" fill="#353638" d="M787.342,185.874c-0.209-1.478-0.415-2.952-0.55-3.935c-0.813,1.564-1.58,3.54-2.857,5.1
	c-0.256,0.313-2.444-0.951-3.981-1.586c4.799-4.467-1.803-11.102,3.441-14.811C788.932,174.687,789.803,179.861,787.342,185.874"/>
<path id="path98" fill="#353638" d="M744.41,384.285c2.042,1.153,3.306,1.868,4.923,2.781c-2.373,1.545,0.838,7.448-5.76,6.354
	C743.848,390.428,744.11,387.578,744.41,384.285"/>
<path id="path100" fill="#353638" d="M1048.294,393.416c0.33-3.092,0.641-5.928,0.973-9.019c1.922,1.017,3.303,1.756,4.916,2.609
	C1051.998,388.829,1054.57,394.543,1048.294,393.416"/>
<path id="path102" fill="#353638" d="M1663.4,384.314c2.08,1.16,3.453,1.93,4.973,2.773c-2.332,1.613,0.588,7.91-5.865,6.138
	C1662.8,390.324,1663.08,387.57,1663.4,384.314"/>
<path id="path104" fill="#353638" d="M1706.693,184.328c0.627-4.112,1.24-8.229,1.881-12.34c0.613,0.083,1.227,0.169,1.826,0.252
	c-2.561,3.881,2.346,8.673-1.92,12.348C1707.88,184.501,1707.279,184.416,1706.693,184.328"/>
<path id="path106" fill="#353638" d="M1702.613,174.689c0,4.181,0,8.357,0,12.537c-0.467-0.004-0.92-0.008-1.373-0.011
	c0-4.214,0-8.425,0-12.64C1701.693,174.615,1702.146,174.652,1702.613,174.689"/>
<path id="path108" fill="#353638" d="M1696.533,186.24c0-2.892,0-5.787,0-9.779C1700.281,180.404,1699.599,183.307,1696.533,186.24"
	/>
<path id="path110" fill="#353638" d="M1710.027,169.921c-2.773,0.309-5.533,0.615-8.613,0.953c-0.201-0.623-0.48-1.451-1.121-3.362
	c3.641,0.411,6.668,0.75,9.693,1.094C1710,169.047,1710,169.484,1710.027,169.921"/>
<path id="path112" fill="#353638" d="M1699.494,168.255c-0.934,2.201-1.641,3.868-2.6,6.152c-0.947-2.441-1.693-4.347-2.613-6.709
	C1696.093,167.889,1697.494,168.04,1699.494,168.255"/>
</svg>
